<ttFont>
          <CharString index="0">
            -17 -8 9 19 hvcurveto
            235 vlineto
            129 -80 78 -130 -64 -65 -23 -45 -67 vhcurveto
            24 -45 rlineto
            40 57 57 22 53 hhcurveto
            91 56 -58 -92 hvcurveto
            -47 vlineto
            17 -43 -58 10 -53 hhcurveto
            -128 -90 -65 -92 -91 75 -71 98 hvcurveto
            16 52 rmoveto
            -70 -54 50 65 65 66 44 96 50 50 -10 -17 45 hvcurveto
            -85 vlineto
            -12 -6 -15 -12 -12 vhcurveto
            -44 -30 -65 -29 -70 hhcurveto
            return
          </CharString>
          <CharString index="1">
            rmoveto
            151 108 124 145 146 -109 125 -150 -149 -109 -125 -146 -145 107 6 callgsubr
            hvcurveto
            -189 268 rmoveto
            117 86 95 103 104 86 -94 -116 -116 -86 -94 -104 -104 -85 92 116 vhcurveto
            return
          </CharString>
          <CharString index="2">
            rmoveto
            -106 callgsubr
            endchar
          </CharString>
          <CharString index="3">
            -17 -7 9 19 hvcurveto
            433 -68 -328 vlineto
            -87 -31 -77 -56 -80 hhcurveto
            -81 -40 58 119 hvcurveto
            294 -68 -306 vlineto
            -148 56 -77 112 vhcurveto
            return
          </CharString>
          <CharString index="4">
            12 hmoveto
            75 hlineto
            91 222 rlineto
            319 hlineto
            92 -222 rlineto
            74 hlineto
            -295 710 rlineto
            -59 hlineto
            -116 -433 rmoveto
            145 351 143 -351 rlineto
            return
          </CharString>
          <CharString index="5">
            rmoveto
            -180 137 -186 195 109 126 59 106 46 vhcurveto
            -58 30 rlineto
            -92 -45 -94 -40 -80 hhcurveto
            -151 -115 142 157 143 93 152 170 77 88 -32 -94 46 hvcurveto
            55 34 rlineto
            91 -43 -93 64 -126 hhcurveto
            -214 -123 -183 -171 hvcurveto
            return
          </CharString>
          <CharString index="6">
            vstem
            -104 callgsubr
            return
          </CharString>
          <CharString index="7">
            -82 -68 -74 -37 -81 hhcurveto
            -151 -116 137 160 151 100 146 157 94 78 -40 -88 46 hvcurveto
            54 36 rlineto
            91 -45 -86 64 -140 hhcurveto
            -189 -139 -169 -190 -180 141 -181 191 86 76 36 73 66 hvcurveto
            return
          </CharString>
          <CharString index="8">
            rmoveto
            -72 hlineto
            -59 -93 45 -17 rlineto
            return
          </CharString>
          <CharString index="9">
            207 133 141 215 196 -114 158 -226 hvcurveto
            -241 -710 hlineto
            511 356 rmoveto
            -167 -94 -127 -176 vhcurveto
            -171 586 171 hlineto
            173 97 -122 -170 hvcurveto
            endchar
          </CharString>
          <CharString index="10">
            rmoveto
            -135 -321 -258 629 rlineto
            -75 hlineto
            300 -710 rlineto
            61 hlineto
            150 351 149 -351 rlineto
            62 hlineto
            301 710 rlineto
            -76 hlineto
            -257 -629 -136 321 124 303 rlineto
            -67 hlineto
            -101 -252 -100 252 rlineto
            -66 hlineto
            return
          </CharString>
          <CharString index="11">
            377 58 rmoveto
            -105 callgsubr
            return
          </CharString>
          <CharString index="12">
            375 -81 callgsubr
            return
          </CharString>
          <CharString index="13">
            rmoveto
            37 17 -57 93 rlineto
            -63 hlineto
            -42 -110 rmoveto
            37 17 -57 93 rlineto
            -64 hlineto
            return
          </CharString>
          <CharString index="14">
            rmoveto
            273 348 279 340 -35 30 -272 -347 -279 -340 rlineto
            return
          </CharString>
          <CharString index="15">
            -29 -27 32 34 hvcurveto
            -42 hlineto
            -57 43 -44 55 54 44 44 57 vhcurveto
            -41 hlineto
            return
          </CharString>
          <CharString index="16">
            52 -59 -74 30 -94 hhcurveto
            -148 -105 -72 -132 -115 79 -36 148 -34 hvcurveto
            141 -32 73 -28 -87 vvcurveto
            return
          </CharString>
          <CharString index="17">
            425 51 -350 hlineto
            351 424 rlineto
            46 -418 -51 344 vlineto
            -352 -424 rlineto
            return
          </CharString>
          <CharString index="18">
            -46 -15 -46 -34 -52 vvcurveto
            -64 66 -54 93 88 74 47 69 vhcurveto
            -45 5 rmoveto
            -47 -58 -30 -57 -54 -62 28 48 48 58 31 57 55 61 -29 -49 vhcurveto
            return
          </CharString>
          <CharString index="19">
            -17 -7 9 19 hvcurveto
            642 -68 -318 vlineto
            65 -39 -71 53 -87 hhcurveto
            -138 -100 -124 -147 -140 104 -129 145 hvcurveto
            15 60 rmoveto
            -109 -85 96 113 return
          </CharString>
          <CharString index="20">
            rmoveto
            81 17 79 13 hvcurveto
            -42 hlineto
            -4 -5 -45 -52 vhcurveto
            return
          </CharString>
          <CharString index="21">
            -29 42 51 -15 61 hhcurveto
            207 26 144 216 hvcurveto
            361 -70 -361 vlineto
            -190 -18 -107 -145 -57 -48 17 20 -29 vhcurveto
            return
          </CharString>
          <CharString index="22">
            rmoveto
            -40 31 -26 43 43 31 26 40 39 -31 26 -43 -43 -31 -26 -39 vhcurveto
            74 38 rmoveto
            23 18 -15 -23 -23 -20 -16 -21 -23 -17 17 22 23 18 15 22 hvcurveto
            return
          </CharString>
          <CharString index="23">
            -36 22 -23 32 -1 vhcurveto
            4 10 0 2 16 hvcurveto
            60 vlineto
            return
          </CharString>
          <CharString index="24">
            70 vstem
            -96 callsubr
            return
          </CharString>
          <CharString index="25">
            rmoveto
            -63 39 -38 62 27 42 8 10 25 vhcurveto
            -12 55 rlineto
            -7 -17 -22 -4 -15 hhcurveto
            -38 -23 23 39 hvcurveto
            return
          </CharString>
          <CharString index="26">
            -66 47 -88 -64 -59 -24 -39 -24 vhcurveto
            30 -34 rlineto
            33 20 42 23 55 hhcurveto
            57 49 -28 return
          </CharString>
          <CharString index="27">
            159 62 -86 callgsubr
            return
          </CharString>
          <CharString index="28">
            rmoveto
            -38 -33 -11 -19 -23 hvcurveto
            32 131 rlineto
            190 44 -224 hlineto
            -5 -32 -37 -147 -10 -49 rrcurveto
            41 hlineto
            28 21 41 19 41 hhcurveto
            54 57 -31 -59 -55 -50 -36 -64 -53 -44 23 35 -24 hvcurveto
            -30 -25 rlineto
            -46 26 57 -29 66 hhcurveto
            89 73 53 80 74 -67 52 -86 hvcurveto
            return
          </CharString>
          <CharString index="29">
            563 62 -476 hlineto
            477 593 rlineto
            55 -556 -62 475 vlineto
            -483 -593 rlineto
            return
          </CharString>
          <CharString index="30">
            rlineto
            6 17 35 8 28 hhcurveto
            30 20 -9 -27 -25 -20 -10 -37 -35 -35 9 9 -18 hvcurveto
            endchar
          </CharString>
          <CharString index="31">
            rmoveto
            44 17 -60 93 rlineto
            -71 hlineto
            endchar
          </CharString>
          <CharString index="32">
            21 -63 callgsubr
            return
          </CharString>
          <CharString index="33">
            -215 177 rmoveto
            39 47 25 52 51 50 -24 -39 -39 -54 -24 -47 -46 -53 23 39 vhcurveto
            return
          </CharString>
          <CharString index="34">
            -61 -10 52 194 52 189 53 return
          </CharString>
          <CharString index="35">
            -10 52 -24 -21 269 43 170 51 return
          </CharString>
          <CharString index="36">
            rmoveto
            88 84 47 81 45 hvcurveto
            -60 vlineto
            return
          </CharString>
          <CharString index="37">
            rmoveto
            80 101 34 81 44 hvcurveto
            -69 46 78 -46 91 hhcurveto
            101 88 54 76 33 hvcurveto
            -60 16 rlineto
            -56 -24 -67 -38 -68 hhcurveto
            -104 -87 82 112 -9 hvcurveto
            453 hlineto
            4 1 15 5 vvcurveto
            148 -1 -107 122 -152 hhcurveto
            -84 -72 -42 -62 -43 hvcurveto
            66 -31 -63 38 -86 hhcurveto
            -64 -65 -23 -45 -68 hvcurveto
            24 -45 rlineto
            40 58 57 22 52 hhcurveto
            79 52 -43 -71 13 hvcurveto
            -10 -23 -5 -28 -2 -25 rrcurveto
            return
          </CharString>
          <CharString index="38">
            -103 -72 callsubr
            return
          </CharString>
          <CharString index="39">
            rmoveto
            -66 callsubr
            hintmask 10111100
            -53 callsubr
            hintmask 11011100
            -73 callgsubr
            endchar
          </CharString>
          <CharString index="40">
            rmoveto
            118 72 104 98 87 -65 115 -125 -119 -73 -106 -96 -90 65 -112 127 hvcurveto
            -146 202 rmoveto
            return
          </CharString>
          <CharString index="41">
            137 -39 88 -116 -93 -86 -51 -76 -42 vhcurveto
            return
          </CharString>
          <CharString index="42">
            rmoveto
            86 75 40 69 51 -40 42 -62 9 hvcurveto
            59 13 32 29 47 vvcurveto
            hintmask 11011110
            62 -81 callsubr
            -43 -45 -51 -22 -84 hvcurveto
            -23 -40 23 hlineto
            hintmask 11101101
            90 59 -28 -47 -42 -52 -29 -65 -73 -50 40 33 -4 hvcurveto
            -27 -28 rlineto
            -55 10 62 -34 83 hhcurveto
            endchar
          </CharString>
          <CharString index="43">
            rmoveto
            86 75 40 69 51 -40 42 -62 9 hvcurveto
            59 13 32 29 47 vvcurveto
            62 -81 callsubr
            -43 -45 -51 -22 -84 hvcurveto
            -23 -40 23 hlineto
            hintmask 11101000
            90 59 -28 -47 -42 -52 -29 -65 -73 -50 40 33 -4 hvcurveto
            -27 -28 rlineto
            -55 10 62 -34 83 hhcurveto
            endchar
          </CharString>
          <CharString index="44">
            68 -68 92 hintmask 1011011100000000
            238 -10 -54 callgsubr
            return
          </CharString>
          <CharString index="45">
            rmoveto
            -64 hlineto
            -57 -93 37 -17 rlineto
            209 110 rmoveto
            -64 hlineto
            -57 -93 38 -17 rlineto
            return
          </CharString>
          <CharString index="46">
            45 -29 29 -29 45 200 44 -29 29 -29 45 return
          </CharString>
          <CharString index="47">
            28 21 -43 callsubr
            return
          </CharString>
          <CharString index="48">
            rmoveto
            75 -70 59 -92 -53 -54 -25 -40 -20 vhcurveto
            101 1 51 58 76 hhcurveto
            49 44 -24 -34 18 hvcurveto
            27 29 rlineto
            45 -24 -52 26 -60 hhcurveto
            -104 -68 -79 -158 -107 68 -64 98 92 73 61 77 hvcurveto
            -164 -97 rmoveto
            -66 -56 44 53 52 55 43 66 67 55 -43 -53 -52 -55 -44 -66 hvcurveto
            endchar
          </CharString>
          <CharString index="49">
            hmoveto
            -90 callsubr
            return
          </CharString>
          <CharString index="50">
            -54 -10 -44 callgsubr
            return
          </CharString>
          <CharString index="51">
            rmoveto
            -76 70 -59 91 54 54 26 39 19 vhcurveto
            -100 -52 -58 -76 -49 -43 23 35 -18 vhcurveto
            -28 -29 rlineto
            -45 24 53 -26 60 hhcurveto
            104 68 78 158 107 -69 64 -98 -92 -72 -61 -76 hvcurveto
            163 96 rmoveto
            66 56 -44 -52 -52 -55 -43 -66 -65 -56 43 52 52 55 44 65 hvcurveto
            endchar
          </CharString>
          <CharString index="52">
            62 271 59 256 62 return
          </CharString>
          <CharString index="53">
            90 59 -27 -47 -43 -52 -28 -65 -73 -50 40 33 -4 hvcurveto
            -27 -29 rlineto
            -54 10 62 -35 83 hhcurveto
            return
          </CharString>
          <CharString index="54">
            118 -62 -521 68 319 vlineto
            return
          </CharString>
          <CharString index="55">
            -144 32 callsubr
            15 521 rmoveto
            199 -262 -199 -259 rlineto
            73 hlineto
            156 203 8 14 8 -14 156 -203 rlineto
            73 hlineto
            -199 259 199 262 rlineto
            -73 hlineto
            -156 -204 -8 -15 -8 15 -156 204 rlineto
            endchar
          </CharString>
          <CharString index="56">
            -37 -4 -25 -29 -28 hhcurveto
            endchar
          </CharString>
          <CharString index="57">
            rmoveto
            -316 -421 316 -70 -710 70 332 421 -332 69 710 vlineto
            return
          </CharString>
          <CharString index="58">
            42 26 -40 60 hhcurveto
            endchar
          </CharString>
          <CharString index="59">
            521 -68 -521 vlineto
            return
          </CharString>
          <CharString index="60">
            -36 -23 -33 -33 vvcurveto
            -35 26 -28 49 -10 vhcurveto
            return
          </CharString>
          <CharString index="61">
            -16 -75 callsubr
            hstem
            5 11 callgsubr
            273 -360 -265 -350 rlineto
            79 hlineto
            225 300 225 -300 rlineto
            77 hlineto
            -265 350 273 360 rlineto
            -77 hlineto
            -233 -310 -233 310 rlineto
            endchar
          </CharString>
          <CharString index="62">
            204 51 rmoveto
            -36 -34 11 19 -28 hvcurveto
            224 336 rlineto
            39 -38 25 -56 -62 vvcurveto
            -116 -86 -94 -104 vhcurveto
            -189 208 rmoveto
            117 86 95 103 35 34 -11 -20 29 vhcurveto
            -224 -337 rlineto
            -39 38 -24 55 63 vvcurveto
            return
          </CharString>
          <CharString index="63">
            -10 -33 callsubr
            return
          </CharString>
          <CharString index="64">
            -21 222 55 433 -20 return
          </CharString>
          <CharString index="65">
            -52 callgsubr
            229 -20 hstem
            return
          </CharString>
          <CharString index="66">
            -20 hstem
            89 70 vstem
            -68 callgsubr
            return
          </CharString>
          <CharString index="67">
            rmoveto
            47 -289 -47 vlineto
            endchar
          </CharString>
          <CharString index="68">
            hmoveto
            262 230 vlineto
            122 83 109 116 110 -89 113 -122 hvcurveto
            -294 -710 hlineto
            70 648 rmoveto
            221 hlineto
            78 66 -72 -89 -86 -54 -77 -84 hvcurveto
            -227 hlineto
            endchar
          </CharString>
          <CharString index="69">
            59 349 -217 -54 158 -118 hlineto
            return
          </CharString>
          <CharString index="70">
            rmoveto
            -90 callsubr
            return
          </CharString>
          <CharString index="71">
            91 hmoveto
            237 hlineto
            135 97 83 137 139 -94 80 -138 hvcurveto
            -168 271 -69 hlineto
            69 -332 rmoveto
            168 hlineto
            112 50 -67 -91 -91 -51 -68 -111 hvcurveto
            -168 hlineto
            return
          </CharString>
          <CharString index="72">
            21 -25 30 -2 vhcurveto
            9 8 0 2 16 hvcurveto
            60 vlineto
            hintmask 11011100
            -17 -7 9 19 hvcurveto
            433 -68 -328 vlineto
            -87 -31 -77 -56 -79 hhcurveto
            -83 -40 58 119 hvcurveto
            294 -68 vlineto
            endchar
          </CharString>
          <CharString index="73">
            -73 callsubr
            -15 callsubr
            70 vstem
            return
          </CharString>
          <CharString index="74">
            60 420 60 return
          </CharString>
          <CharString index="75">
            107 73 104 112 72 82 -58 -72 26 return
          </CharString>
          <CharString index="76">
            61 709 -70 -590 hlineto
            return
          </CharString>
          <CharString index="77">
            107 -5 10 callsubr
            return
          </CharString>
          <CharString index="78">
            -57 callsubr
            229 30 callgsubr
            hintmask 10111100
            return
          </CharString>
          <CharString index="79">
            83 vvcurveto
            68 -49 51 -97 -98 -55 -54 -14 -10 vhcurveto
            30 -31 rlineto
            22 20 40 33 67 hhcurveto
            68 34 -33 -41 -62 -76 -17 -61 -24 hvcurveto
            -85 -33 -41 -47 -103 vvcurveto
            endchar
          </CharString>
          <CharString index="80">
            rmoveto
            97 -62 -97 vlineto
            endchar
          </CharString>
          <CharString index="81">
            rmoveto
            -69 -710 69 333 114 hlineto
            252 -333 rlineto
            80 hlineto
            -275 368 249 342 rlineto
            -80 hlineto
            -232 -315 rlineto
            -108 hlineto
            endchar
          </CharString>
          <CharString index="82">
            68 vstem
            143 hmoveto
            -48 callsubr
            return
          </CharString>
          <CharString index="83">
            68 -5 63 -37 -21 295 54 303 63 return
          </CharString>
          <CharString index="84">
            -5 callsubr
            -68 93 return
          </CharString>
          <CharString index="85">
            34 27 32 29 vhcurveto
            return
          </CharString>
          <CharString index="86">
            rmoveto
            76 77 43 68 41 hvcurveto
            -51 vlineto
            return
          </CharString>
          <CharString index="87">
            -75 callsubr
            227 -20 hstem
            return
          </CharString>
          <CharString index="88">
            -13 callgsubr
            -9 -20 229 30 callsubr
            hintmask 11011100
            return
          </CharString>
          <CharString index="89">
            -91 callgsubr
            endchar
          </CharString>
          <CharString index="90">
            138 41 hstemhm
            292 59 -45 45 hintmask 11110000
            190 return
          </CharString>
          <CharString index="91">
            44 316 44 hstem
            38 46 291 45 vstem
            230 return
          </CharString>
          <CharString index="92">
            -13 callsubr
            39 return
          </CharString>
          <CharString index="93">
            51 hlineto
            235 399 rlineto
            -321 -44 return
          </CharString>
          <CharString index="94">
            200 -20 hstem
            return
          </CharString>
          <CharString index="95">
            rmoveto
            -68 230 -67 -521 67 238 74 hlineto
            184 -238 rlineto
            76 hlineto
            -214 269 197 252 rlineto
            -76 hlineto
            endchar
          </CharString>
          <CharString index="96">
            -161 -10 52 437 51 -13 callsubr
            53 65 267 66 vstem
            return
          </CharString>
          <CharString index="97">
            28 84 73 50 91 3 rrcurveto
            return
          </CharString>
          <CharString index="98">
            218 vlineto
            134 139 272 -357 rlineto
            77 hlineto
            -305 398 290 312 rlineto
            -77 hlineto
            -391 -413 rlineto
            return
          </CharString>
          <CharString index="99">
            rmoveto
            103 57 43 -57 253 -31 vlineto
            -242 -254 rlineto
            -42 228 -103 vlineto
            1 338 rmoveto
            -192 -181 vlineto
            endchar
          </CharString>
          <CharString index="100">
            -41 -6 62 597 62 218 -20 56 callsubr
            return
          </CharString>
          <CharString index="101">
            57 callsubr
            -68 92 return
          </CharString>
          <CharString index="102">
            hstemhm
            33 65 307 68 return
          </CharString>
          <CharString index="103">
            -21 521 return
          </CharString>
          <CharString index="104">
            -77 callgsubr
            endchar
          </CharString>
          <CharString index="105">
            31 -48 -56 19 -63 hhcurveto
            -190 -144 -171 -189 -102 42 -101 72 -69 hvcurveto
            -55 -83 rlineto
            77 hlineto
            29 44 rlineto
            return
          </CharString>
          <CharString index="106">
            -31 48 56 -18 64 hhcurveto
            190 143 170 189 100 -43 101 -72 70 hvcurveto
            57 85 rlineto
            -538 -355 rmoveto
            return
          </CharString>
          <CharString index="107">
            45 7 -20 hstemhm
            return
          </CharString>
          <CharString index="108">
            187 rlineto
            -66 -286 48 217 hlineto
            84 -175 rlineto
            40 hlineto
            84 175 rlineto
            -217 48 286 -67 vlineto
            return
          </CharString>
          <CharString index="109">
            -166 -50 callgsubr
            return
          </CharString>
          <CharString index="110">
            -917 rmoveto
            -78 callsubr
            return
          </CharString>
          <CharString index="111">
            hstemhm
            33 callgsubr
            return
          </CharString>
          <CharString index="112">
            -178 -21 150 return
          </CharString>
          <CharString index="113">
            -459 267 -21 112 -20 hstem
            65 59 vstem
            124 246 rmoveto
            112 -59 -112 vlineto
            endchar
          </CharString>
          <CharString index="114">
            -123 181 rmoveto
            75 56 59 67 68 55 -58 -74 -75 -55 -59 -68 -68 -55 58 74 vhcurveto
            endchar
          </CharString>
          <CharString index="115">
            38 -6 63 594 63 203 -20 hstem
            42 70 vstem
            return
          </CharString>
          <CharString index="116">
            63 593 64 return
          </CharString>
          <CharString index="117">
            63 652 -20 return
          </CharString>
          <CharString index="118">
            vstem
            76 hmoveto
            180 hlineto
            95 81 59 109 109 -80 59 -96 hvcurveto
            -113 185 -67 hlineto
            return
          </CharString>
          <CharString index="119">
            58 callgsubr
            94 hstem
            return
          </CharString>
          <CharString index="120">
            -19 callgsubr
            hintmask 1110100100000000
            43 14 34 29 41 vvcurveto
            63 -74 38 -70 -70 -75 return
          </CharString>
          <CharString index="121">
            238 -10 -71 callsubr
            return
          </CharString>
          <CharString index="122">
            -21 -15 hvcurveto
            32 -36 rlineto
            12 8 15 11 24 hhcurveto
            hintmask 10100000
            44 33 -42 64 hhcurveto
            39 26 return
          </CharString>
          <CharString index="123">
            -94 callsubr
            endchar
          </CharString>
          <CharString index="124">
            hintmask 01110000
            25 104 rlineto
            hintmask 10110000
            102 -66 vlineto
            hintmask 01110000
            -102 23 vlineto
            hintmask 10110000
            -17 -104 rlineto
            return
          </CharString>
          <CharString index="125">
            hmoveto
            207 133 141 215 196 -114 158 -226 hvcurveto
            -241 return
          </CharString>
          <CharString index="126">
            -212 rmoveto
            64 287 hlineto
            -50 18 41 -35 64 hhcurveto
            83 81 57 71 35 hvcurveto
            return
          </CharString>
          <CharString index="127">
            -25 -106 rlineto
            -103 67 103 -24 vlineto
            17 106 rlineto
            return
          </CharString>
          <CharString index="128">
            17 -4 rmoveto
            108 5 45 73 35 277 14 116 rcurveline
            176 hlineto
            return
          </CharString>
          <CharString index="129">
            7 7 1 2 10 hvcurveto
            60 vlineto
            return
          </CharString>
          <CharString index="130">
            648 62 hstem
            270 70 vstem
            return
          </CharString>
          <CharString index="131">
            124 53 callsubr
            454 70 vstem
            return
          </CharString>
          <CharString index="132">
            rmoveto
            197 147 vlineto
            57 31 -39 -60 -59 -31 -39 -57 hvcurveto
            endchar
          </CharString>
          <CharString index="133">
            21 -21 467 54 121 59 -21 60 hstemhm
            100 68 162 68 return
          </CharString>
          <CharString index="134">
            41 192 39 93 42 hstem
            40 43 245 43 vstem
            371 return
          </CharString>
          <CharString index="135">
            638 -87 callsubr
            return
          </CharString>
          <CharString index="136">
            68 467 193 -467 68 521 -261 16 hlineto
            68 return
          </CharString>
          <CharString index="137">
            -20 4 callsubr
            return
          </CharString>
          <CharString index="138">
            -21 33 callsubr
            return
          </CharString>
          <CharString index="139">
            -52 callgsubr
            hstem
            return
          </CharString>
          <CharString index="140">
            461 63 -3 -20 return
          </CharString>
          <CharString index="141">
            42 93 40 191 41 hstem
            33 43 245 43 vstem
            33 return
          </CharString>
          <CharString index="142">
            0 58 220 58 185 9 callgsubr
            222 67 return
          </CharString>
          <CharString index="143">
            58 31 57 55 61 -29 -49 vhcurveto
            hintmask 1110011000000000
            -215 return
          </CharString>
          <CharString index="144">
            85 70 55 101 102 -70 55 -85 hvcurveto
            -147 208 return
          </CharString>
          <CharString index="145">
            -75 callsubr
            135 -40 callgsubr
            return
          </CharString>
          <CharString index="146">
            -62 66 callgsubr
            hstemhm
            91 70 return
          </CharString>
          <CharString index="147">
            -20 hstem
            79 69 459 70 vstem
            return
          </CharString>
          <CharString index="148">
            -166 98 89 -21 return
          </CharString>
          <CharString index="149">
            101 -35 35 hstemhm
            return
          </CharString>
          <CharString index="150">
            313 0 62 160 62 47 62 255 62 return
          </CharString>
          <CharString index="151">
            -156 -154 -206 -207 156 -155 return
          </CharString>
          <CharString index="152">
            -10 40 208 39 156 39 208 40 hstem
            return
          </CharString>
          <CharString index="153">
            -191 -21 202 -44 callgsubr
            hstemhm
            return
          </CharString>
          <CharString index="154">
            99 -75 83 -106 -106 -74 -83 -99 -97 73 -85 107 return
          </CharString>
          <CharString index="155">
            -21 355 44 hstem
            61 return
          </CharString>
          <CharString index="156">
            410 54 176 -20 return
          </CharString>
          <CharString index="157">
            43 317 44 hstem
            299 50 vstem
            344 return
          </CharString>
          <CharString index="158">
            -10 60 -29 -21 470 60 200 -20 hstemhm
            return
          </CharString>
          <CharString index="159">
            730 rmoveto
            -94 -34 hlineto
            -38 -59 45 -17 rlineto
            return
          </CharString>
          <CharString index="160">
            -20 callsubr
            89 70 return
          </CharString>
          <CharString index="161">
            44 361 -20 hstem
            138 45 vstem
            183 return
          </CharString>
          <CharString index="162">
            710 rlineto
            -491 -63 383 hlineto
            endchar
          </CharString>
          <CharString index="163">
            hstem
            58 72 369 74 vstem
            return
          </CharString>
          <CharString index="164">
            -20 hstemhm
            40 70 365 68 return
          </CharString>
          <CharString index="165">
            hvcurveto
            -291 68 vlineto
            return
          </CharString>
          <CharString index="166">
            0 66 callgsubr
            return
          </CharString>
          <CharString index="167">
            39 69 379 69 return
          </CharString>
          <CharString index="168">
            33 callsubr
            hstemhm
            75 68 hintmask 11101000
            return
          </CharString>
          <CharString index="169">
            -31 callgsubr
            hstem
            89 70 return
          </CharString>
          <CharString index="170">
            -164 21 -21 238 53 230 -20 return
          </CharString>
          <CharString index="171">
            103 -5 63 -37 -21 651 64 -5 -20 return
          </CharString>
          <CharString index="172">
            52 -6 63 276 59 259 63 hstem
            return
          </CharString>
          <CharString index="173">
            hvcurveto
            -161 vlineto
            return
          </CharString>
        <CharString name=".notdef">
          -648 endchar
        </CharString>
        <CharString name="A">
          -60 callsubr
          hstem
          -103 callsubr
          endchar
        </CharString>
        <CharString name="A.sc">
          -62 21 -21 165 55 328 -20 hstem
          85 hmoveto
          75 165 rlineto
          265 hlineto
          76 -165 rlineto
          66 hlineto
          -248 548 rlineto
          -52 hlineto
          -250 -548 rlineto
          392 220 rmoveto
          -234 hlineto
          118 250 rlineto
          endchar
        </CharString>
        <CharString name="AE">
          43 callsubr
          hstem
          445 73 vstem
          -26 hmoveto
          -37 callgsubr
        </CharString>
        <CharString name="AEacute">
          43 callsubr
          207 -20 hstem
          445 73 vstem
          604 917 -99 callsubr
          -544 -807 rmoveto
          -37 callgsubr
        </CharString>
        <CharString name="Aacute">
          -60 callsubr
          227 -20 hstem
          -103 callsubr
          -50 640 -23 callgsubr
        </CharString>
        <CharString name="Abreve">
          -60 callsubr
          126 15 callgsubr
          240 196 hintmask 11110100
          -103 callsubr
          -143 574 rmoveto
          hintmask 11101100
          -92 callsubr
          hintmask 11110100
          -51 callsubr
        </CharString>
        <CharString name="Acircumflex">
          -60 callsubr
          227 -20 hstem
          -103 callsubr
          -228 534 -49 callgsubr
        </CharString>
        <CharString name="Adblgrave">
          -60 callsubr
          228 -20 hstem
          -103 callsubr
          -92 531 16 callsubr
        </CharString>
        <CharString name="Adieresis">
          -60 callsubr
          130 94 hstem
          235 67 callgsubr
          -103 callsubr
          -188 543 -18 callsubr
        </CharString>
        <CharString name="Agrave">
          -60 callsubr
          227 -20 hstem
          -103 callsubr
          -149 530 -76 callsubr
        </CharString>
        <CharString name="Ainvertedbreve">
          -60 callsubr
          192 35 hstem
          240 196 vstem
          -103 callsubr
          -143 605 rmoveto
          -93 callgsubr
          -22 callsubr
          endchar
        </CharString>
        <CharString name="Amacron">
          -60 callsubr
          160 47 hstem
          -103 callsubr
          2 573 -40 callsubr
        </CharString>
        <CharString name="Aogonek">
          27 -154 -21 196 -43 callsubr
          hstem
          539 42 vstem
          614 -41 callgsubr
          -295 710 rlineto
          -59 hlineto
          -297 -710 rlineto
          75 hlineto
          91 222 rlineto
          319 hlineto
          92 -222 rlineto
          25 hlineto
          -52 -47 callsubr
          -421 452 rmoveto
          145 351 143 -351 rlineto
          endchar
        </CharString>
        <CharString name="Aring">
          -60 callsubr
          96 27 77 27 hstem
          264 34 81 33 vstem
          -103 callsubr
          -217 575 -85 callsubr
          endchar
        </CharString>
        <CharString name="Aringacute">
          -60 callsubr
          97 131 hstem
          264 34 81 33 vstem
          435 918 rmoveto
          -72 hlineto
          -34 -105 rlineto
          -39 -3 -26 -25 -36 vvcurveto
          -27 14 -21 23 -11 vhcurveto
          -289 -690 rlineto
          75 hlineto
          91 222 rlineto
          319 hlineto
          92 -222 rlineto
          74 hlineto
          -287 691 rlineto
          22 10 14 21 27 vvcurveto
          29 -18 22 -26 9 vhcurveto
          -175 -532 rmoveto
          145 351 143 -351 rlineto
          -143 510 rmoveto
          23 18 -15 -23 -23 -20 -16 -21 -23 -17 17 22 23 18 15 22 hvcurveto
          endchar
        </CharString>
        <CharString name="Atilde">
          -60 callsubr
          135 -40 callgsubr
          hintmask 11110100
          -103 callsubr
          -81 548 -87 callsubr
          hintmask 11101000
          -94 callgsubr
          hintmask 11110100
          -49 callsubr
        </CharString>
        <CharString name="B">
          18 0 61 269 57 262 61 hstemhm
          89 70 365 69 -40 70 hintmask 11110100
          623 -65 callgsubr
        </CharString>
        <CharString name="B.sc">
          -69 0 54 197 51 190 56 hstemhm
          84 62 300 61 -37 63 hintmask 11110100
          533 141 rmoveto
          68 -43 53 -67 19 vhcurveto
          hintmask 11111000
          53 22 31 50 55 vvcurveto
          69 -51 71 -83 vhcurveto
          -289 -548 280 hlineto
          hintmask 11110100
          93 76 58 83 hvcurveto
          -63 11 rmoveto
          -51 -47 -47 -59 vhcurveto
          -218 197 224 hlineto
          57 43 -47 -52 hvcurveto
          -118 340 rmoveto
          hintmask 11111000
          55 39 -41 -54 -51 -42 -44 -57 hvcurveto
          -201 190 hlineto
          endchar
        </CharString>
        <CharString name="C">
          38 -6 63 594 63 hstem
          42 70 vstem
          42 360 -102 callsubr
          endchar
        </CharString>
        <CharString name="C.sc">
          -53 -5 57 442 57 hstem
          44 63 vstem
          44 278 rmoveto
          -140 115 -143 164 92 106 46 81 40 vhcurveto
          -53 29 rlineto
          -70 -37 -78 -29 -66 hhcurveto
          -126 -94 105 118 106 76 113 142 64 72 -23 -72 38 hvcurveto
          50 32 rlineto
          70 -37 -78 50 -106 hhcurveto
          -181 -103 -141 -132 hvcurveto
          endchar
        </CharString>
        <CharString name="CR">
          -648 endchar
        </CharString>
        <CharString name="Cacute">
          8 callsubr
          470 917 -99 callsubr
          -342 -447 -102 callsubr
          endchar
        </CharString>
        <CharString name="Ccaron">
          8 callsubr
          254 897 -95 callgsubr
          -250 -557 -102 callsubr
          endchar
        </CharString>
        <CharString name="Ccedilla">
          35 34 callgsubr
          40 62 594 63 hstem
          39 70 330 39 vstem
          277 -78 callgsubr
          28 46 104 7 113 58 43 99 rlinecurve
          -58 30 rlineto
          -92 -45 -94 -40 -80 hhcurveto
          -151 -115 142 157 143 93 152 170 77 88 -32 -94 46 hvcurveto
          55 34 rlineto
          91 -43 -93 64 -126 hhcurveto
          -214 -123 -183 -171 -175 129 -180 185 -10 hvcurveto
          -44 -82 -77 callsubr
        </CharString>
        <CharString name="Ccircumflex">
          8 callsubr
          292 811 -100 callgsubr
          -212 -472 -102 callsubr
          endchar
        </CharString>
        <CharString name="Cdotaccent">
          38 -6 63 594 63 106 97 hstem
          42 70 234 62 vstem
          42 360 -102 callsubr
          366 460 -27 callsubr
        </CharString>
        <CharString name="D">
          67 0 62 586 39 callgsubr
          330 hmoveto
          -98 callsubr
        </CharString>
        <CharString name="D.sc">
          -27 0 56 436 56 hstem
          84 62 365 64 vstem
          288 hmoveto
          174 113 108 167 151 -96 122 -191 hvcurveto
          -204 -548 hlineto
          427 275 rmoveto
          -125 -77 -94 -146 vhcurveto
          -142 436 142 hlineto
          143 80 -90 -127 hvcurveto
          endchar
        </CharString>
        <CharString name="Dcaron">
          67 12 callgsubr
          89 70 441 70 vstem
          221 897 -95 callgsubr
          71 -917 rmoveto
          -98 callsubr
        </CharString>
        <CharString name="Dcroat">
          -67 callgsubr
        </CharString>
        <CharString name="Ddotbelow">
          67 -166 98 68 62 586 62 hstem
          89 70 148 62 231 70 vstem
          369 2 callsubr
          23 166 rmoveto
          -98 callsubr
        </CharString>
        <CharString name="Delta">
          -34 49 callgsubr
          337 -8 callgsubr
        </CharString>
        <CharString name="E">
          -39 0 63 callgsubr
          vstem
          -80 callsubr
          endchar
        </CharString>
        <CharString name="E.sc">
          -117 0 56 197 52 187 56 hstem
          84 62 vstem
          146 56 rmoveto
          197 291 52 -291 187 333 56 -395 -548 403 56 vlineto
          endchar
        </CharString>
        <CharString name="Eacute">
          -15 callgsubr
          89 70 vstem
          429 917 -99 callsubr
          -184 -745 -86 callgsubr
          endchar
        </CharString>
        <CharString name="Ebreve">
          -70 callgsubr
          106 15 callgsubr
          89 70 80 196 hintmask 11110110
          -80 callsubr
          -229 789 rmoveto
          hintmask 11101110
          -92 callsubr
          hintmask 11110110
          -51 callsubr
        </CharString>
        <CharString name="Ecaron">
          -15 callgsubr
          89 70 vstem
          214 897 -95 callgsubr
          -93 -855 -86 callgsubr
          endchar
        </CharString>
        <CharString name="Ecircumflex">
          -15 callgsubr
          89 70 vstem
          252 811 -100 callgsubr
          -55 -770 -86 callgsubr
          endchar
        </CharString>
        <CharString name="Edblgrave">
          -70 callgsubr
          208 -20 hstem
          89 70 vstem
          389 808 -94 callsubr
          -21 -856 -86 callgsubr
          endchar
        </CharString>
        <CharString name="Edieresis">
          -70 callgsubr
          110 94 hstem
          89 70 74 67 callgsubr
          291 820 -91 callgsubr
          -223 -758 -86 callgsubr
          endchar
        </CharString>
        <CharString name="Edotaccent">
          -70 callgsubr
          110 97 hstem
          89 70 147 62 vstem
          -80 callsubr
          -198 758 -27 callsubr
        </CharString>
        <CharString name="Edotbelow">
          -39 -166 98 68 63 callgsubr
          136 62 vstem
          -80 callsubr
          -209 -228 -50 callgsubr
          endchar
        </CharString>
        <CharString name="Egrave">
          -15 callgsubr
          89 70 vstem
          -80 callsubr
          -235 745 -76 callsubr
        </CharString>
        <CharString name="Einvertedbreve">
          -70 callgsubr
          106 42 callsubr
          89 70 75 196 hintmask 11101110
          332 882 rmoveto
          hintmask 11110110
          -93 callgsubr
          hintmask 11101110
          -22 callsubr
          -173 -820 -86 callgsubr
          endchar
        </CharString>
        <CharString name="Emacron">
          -70 callgsubr
          140 47 hstem
          89 70 vstem
          -80 callsubr
          -84 788 -40 callsubr
        </CharString>
        <CharString name="Eng">
          118 -181 61 141 -21 callgsubr
          449 69 hintmask 11101100
          609 9 rmoveto
          -36 vlineto
          -53 -47 -40 -47 -25 -27 5 19 -20 vhcurveto
          -34 -46 rlineto
          -28 31 40 -11 43 hhcurveto
          77 77 64 92 hvcurveto
          734 -69 -587 vlineto
          hintmask 11011100
          -466 588 rlineto
          -53 -710 70 579 hlineto
          endchar
        </CharString>
        <CharString name="Eogonek">
          -39 -154 -21 175 63 callgsubr
          283 42 vstem
          159 62 -97 callgsubr
          428 vlineto
          -52 -47 callsubr
          -60 callgsubr
          29 23 27 59 37 vhcurveto
          62 vlineto
          endchar
        </CharString>
        <CharString name="Eth">
          -67 callgsubr
        </CharString>
        <CharString name="Etilde">
          -70 callgsubr
          115 -40 callgsubr
          89 70 hintmask 11110110
          -80 callsubr
          -167 763 -87 callsubr
          hintmask 11101010
          -94 callgsubr
          hintmask 11110110
          -49 callsubr
        </CharString>
        <CharString name="Euro">
          153 -6 63 211 43 62 43 235 63 hstem
          80 416 rmoveto
          -18 -43 rlineto
          74 -13 hlineto
          -17 1 -16 2 -16 vhcurveto
          -88 hlineto
          -18 -43 rlineto
          114 hlineto
          -146 37 122 -128 162 hhcurveto
          109 126 59 106 46 hvcurveto
          -58 30 rlineto
          -92 -45 -94 -40 -80 hhcurveto
          -122 -99 92 119 -33 hvcurveto
          276 hlineto
          19 43 rlineto
          -304 hlineto
          -2 15 -1 15 15 vvcurveto
          17 325 vlineto
          18 43 rlineto
          -338 hlineto
          122 22 89 113 147 hhcurveto
          77 88 -32 -94 46 hvcurveto
          55 34 rlineto
          91 -43 -93 64 -126 hhcurveto
          -191 -119 -146 -152 -23 hvcurveto
          endchar
        </CharString>
        <CharString name="F">
          -59 21 -21 329 58 261 62 hstem
          89 70 vstem
          159 hmoveto
          329 334 58 -334 261 396 62 -466 -710 vlineto
          endchar
        </CharString>
        <CharString name="F.sc">
          -135 21 -21 248 54 190 56 hstem
          84 62 vstem
          146 hmoveto
          248 280 54 -280 190 330 56 -392 -548 vlineto
          endchar
        </CharString>
        <CharString name="G">
          -24 callsubr
          hstemhm
          42 70 490 59 hintmask 01111100
          602 hmoveto
          -38 callsubr
          hintmask 10111100
          -100 callsubr
          endchar
        </CharString>
        <CharString name="G.alt">
          84 -5 63 228 63 303 63 hstem
          42 70 vstem
          380 -5 rmoveto
          179 129 147 166 16 hvcurveto
          7 1 29 5 vvcurveto
          -283 -63 208 hlineto
          -117 -20 -98 -111 -137 hhcurveto
          -158 -105 148 148 148 103 150 160 104 76 -67 -68 40 hvcurveto
          55 45 rlineto
          91 -57 -96 62 -118 hhcurveto
          -197 -140 -172 -186 -185 140 -177 198 hvcurveto
          endchar
        </CharString>
        <CharString name="G.sc">
          -29 -4 57 -32 -21 223 48 224 56 hstemhm
          44 63 403 54 hintmask 01111100
          510 hmoveto
          54 271 -185 -48 131 -82 hlineto
          hintmask 10111100
          -60 -56 -61 -28 -67 hhcurveto
          -123 -96 101 120 113 82 108 129 77 66 -30 -66 37 hvcurveto
          49 33 rlineto
          70 -38 -73 49 -116 hhcurveto
          -160 -116 -129 -146 -141 118 -139 160 71 62 26 54 55 hvcurveto
          endchar
        </CharString>
        <CharString name="Gacute">
          -24 callsubr
          202 -20 hstemhm
          42 70 490 59 hintmask 01111110
          465 917 -99 callsubr
          223 -807 rmoveto
          -38 callsubr
          hintmask 10111110
          -100 callsubr
          endchar
        </CharString>
        <CharString name="Gbreve">
          -24 callsubr
          101 15 callgsubr
          42 70 159 196 135 59 hintmask 0111101110000000
          602 hmoveto
          -38 callsubr
          hintmask 1011101110000000
          -100 callsubr
          hintmask 0111101110000000
          -233 747 rmoveto
          hintmask 1011011110000000
          -92 callsubr
          hintmask 1011101110000000
          -51 callsubr
        </CharString>
        <CharString name="Gcircumflex">
          -24 callsubr
          202 -20 hstemhm
          42 70 490 59 hintmask 01111110
          284 811 -100 callgsubr
          356 -832 rmoveto
          -38 callsubr
          hintmask 10111110
          -100 callsubr
          endchar
        </CharString>
        <CharString name="Gcommaaccent">
          68 5 callsubr
          44 0 63 -37 -21 295 54 303 63 hstemhm
          42 70 230 63 197 59 hintmask 1101111110000000
          380 -87 callgsubr
          257 199 rmoveto
          -38 callsubr
          hintmask 1010111110000000
          -100 callsubr
          endchar
        </CharString>
        <CharString name="Gdotaccent">
          -24 callsubr
          105 97 hstemhm
          42 70 226 62 202 59 hintmask 01111111
          602 hmoveto
          -38 callsubr
          hintmask 10111111
          -100 callsubr
          hintmask 01111111
          -202 716 -27 callsubr
        </CharString>
        <CharString name="H">
          90 21 -21 332 62 316 -20 hstem
          89 70 421 69 vstem
          580 710 -50 callsubr
          endchar
        </CharString>
        <CharString name="H.sc">
          -7 21 -21 252 57 239 -20 hstem
          84 62 349 62 vstem
          495 548 rmoveto
          -239 -349 239 -62 -548 62 252 349 -252 62 548 vlineto
          endchar
        </CharString>
        <CharString name="Hbar">
          100 21 -21 332 62 156 39 121 -20 hstem
          94 70 421 69 vstem
          585 11 callgsubr
          -121 -421 121 -70 -121 -50 -39 50 -550 70 332 421 -332 69 550 50 39 -50 121 vlineto
          -490 -316 rmoveto
          156 421 -156 vlineto
          endchar
        </CharString>
        <CharString name="Hcircumflex">
          90 21 -21 332 62 316 -20 227 -20 hstem
          89 70 421 69 vstem
          286 811 -100 callgsubr
          332 -122 -50 callsubr
          endchar
        </CharString>
        <CharString name="Hdotbelow">
          90 41 callsubr
          332 62 316 -20 hstem
          89 70 180 62 179 69 vstem
          580 710 -50 callsubr
          -248 -876 -50 callgsubr
          endchar
        </CharString>
        <CharString name="I">
          -400 21 -21 710 -41 callsubr
          endchar
        </CharString>
        <CharString name="I.sc">
          -418 21 -21 547 -20 hstem
          84 62 vstem
          146 hmoveto
          547 -62 -547 vlineto
          endchar
        </CharString>
        <CharString name="IJ">
          81 -11 63 -31 -21 710 43 callgsubr
          420 70 hintmask 01111000
          -68 callgsubr
          173 33 rmoveto
          hintmask 10111000
          -86 callsubr
          endchar
        </CharString>
        <CharString name="Iacute">
          -400 21 -21 710 -20 227 -41 callsubr
          127 917 -23 callgsubr
        </CharString>
        <CharString name="Ibreve">
          -30 callgsubr
          126 15 callgsubr
          26 196 -133 70 hintmask 11100100
          -68 callgsubr
          35 851 rmoveto
          hintmask 11011000
          -92 callsubr
          hintmask 11101000
          -51 callsubr
        </CharString>
        <CharString name="Icircumflex">
          -400 21 -21 710 -20 227 -41 callsubr
          -50 811 -49 callgsubr
        </CharString>
        <CharString name="Idblgrave">
          -30 callgsubr
          228 -41 callsubr
          97 808 16 callsubr
        </CharString>
        <CharString name="Idieresis">
          -400 12 callsubr
          20 58 11 70 10 58 vstem
          -68 callgsubr
          -11 820 -18 callsubr
        </CharString>
        <CharString name="Idotaccent">
          -400 58 callgsubr
          97 hstem
          89 70 vstem
          -68 callgsubr
          66 820 -27 callsubr
        </CharString>
        <CharString name="Idotbelow">
          -400 41 callsubr
          710 -41 callsubr
          64 2 callsubr
          endchar
        </CharString>
        <CharString name="Igrave">
          -400 21 -21 710 -20 227 -41 callsubr
          29 807 -76 callsubr
        </CharString>
        <CharString name="Iinvertedbreve">
          -30 callgsubr
          126 42 callsubr
          24 196 -131 70 hintmask 11010100
          -68 callgsubr
          33 882 rmoveto
          hintmask 11101000
          -93 callgsubr
          hintmask 11011000
          -22 callsubr
          endchar
        </CharString>
        <CharString name="Imacron">
          -30 callgsubr
          160 47 hstem
          89 70 vstem
          -68 callgsubr
          180 850 -40 callsubr
        </CharString>
        <CharString name="Iogonek">
          -400 -154 -21 196 -63 callgsubr
          hstem
          35 42 12 70 vstem
          110 -41 callgsubr
          710 -70 -710 21 vlineto
          -52 -47 callsubr
          endchar
        </CharString>
        <CharString name="Itilde">
          -400 38 callsubr
          89 70 hintmask 11101100
          -68 callgsubr
          97 825 -87 callsubr
          hintmask 11010100
          -94 callgsubr
          hintmask 11101100
          -49 callsubr
        </CharString>
        <CharString name="J">
          -167 -11 63 658 -20 hstem
          331 70 vstem
          14 33 rmoveto
          -86 callsubr
          endchar
        </CharString>
        <CharString name="J.sc">
          -223 -8 56 499 -20 hstem
          286 62 vstem
          21 25 rmoveto
          -22 35 43 -11 52 hhcurveto
          176 21 110 167 hvcurveto
          278 -62 -278 vlineto
          -143 -15 -78 -120 -48 -41 14 14 -24 vhcurveto
          endchar
        </CharString>
        <CharString name="Jcircumflex">
          -167 -11 63 658 -20 227 -20 hstem
          331 70 vstem
          282 811 -100 callgsubr
          -230 -799 rmoveto
          -86 callsubr
          endchar
        </CharString>
        <CharString name="K">
          -5 21 -21 callgsubr
          hintmask 10110000
          159 hmoveto
          -9 callsubr
          hintmask 11010000
          412 -70 -709 vlineto
          endchar
        </CharString>
        <CharString name="K.sc">
          -86 21 -21 547 -20 21 -20 hstemhm
          84 62 hintmask 10110000
          146 hmoveto
          168 vlineto
          112 102 226 -270 rlineto
          68 hlineto
          -256 307 244 241 rlineto
          -70 hlineto
          -324 -310 rlineto
          hintmask 11010000
          309 -62 -547 vlineto
          endchar
        </CharString>
        <CharString name="Kcommaaccent">
          -5 -178 -21 220 -21 callgsubr
          137 63 hintmask 11011100
          334 -87 callgsubr
          -140 199 rmoveto
          -9 callsubr
          hintmask 11101100
          412 -70 -709 vlineto
          endchar
        </CharString>
        <CharString name="L">
          -65 49 callgsubr
          89 70 vstem
          569 hmoveto
          -20 callgsubr
          endchar
        </CharString>
        <CharString name="L.sc">
          -153 0 56 492 -20 hstem
          84 62 vstem
          477 hmoveto
          56 -331 492 -62 -548 vlineto
          endchar
        </CharString>
        <CharString name="Lacute">
          -65 59 callsubr
          227 -20 hstem
          89 70 vstem
          435 917 -99 callsubr
          220 -807 rmoveto
          -20 callgsubr
          endchar
        </CharString>
        <CharString name="Lcaron">
          -65 0 62 668 -20 hstem
          89 70 vstem
          466 730 -99 callsubr
          189 -620 rmoveto
          -20 callgsubr
          endchar
        </CharString>
        <CharString name="Lcommaaccent">
          -65 5 callsubr
          49 59 callsubr
          hstemhm
          89 70 140 63 hintmask 11011100
          337 -87 callgsubr
          267 199 rmoveto
          hintmask 10111100
          -20 callgsubr
          endchar
        </CharString>
        <CharString name="Ldot">
          -65 49 callgsubr
          89 70 207 59 vstem
          569 hmoveto
          -20 callgsubr
          336 348 rmoveto
          112 -59 -112 vlineto
          endchar
        </CharString>
        <CharString name="Lslash">
          -58 49 callgsubr
          96 70 vstem
          576 hmoveto
          62 -410 273 vlineto
          177 148 -22 39 -155 -129 rlineto
          317 -70 -375 vlineto
          -80 -66 22 -40 58 48 rlineto
          -277 vlineto
          endchar
        </CharString>
        <CharString name="M">
          229 -75 callsubr
          hstem
          89 70 559 70 vstem
          788 -26 callgsubr
        </CharString>
        <CharString name="M.sc">
          109 32 callgsubr
          84 62 465 63 vstem
          674 hmoveto
          548 -65 vlineto
          -230 -364 -230 364 rlineto
          -65 -548 62 435 hlineto
          215 -335 rlineto
          36 hlineto
          214 335 rlineto
          -435 vlineto
          endchar
        </CharString>
        <CharString name="N">
          124 21 -21 callgsubr
          454 70 hintmask 11011000
          622 hmoveto
          -31 callsubr
          hintmask 10111000
          -18 callgsubr
        </CharString>
        <CharString name="N.sc">
          21 21 -21 547 -20 21 -20 hstemhm
          84 62 376 63 hintmask 11011000
          531 hmoveto
          54 547 -63 -438 hlineto
          hintmask 10111000
          -390 439 rlineto
          -48 -548 62 431 hlineto
          endchar
        </CharString>
        <CharString name="NULL">
          -648 endchar
        </CharString>
        <CharString name="Nacute">
          24 callsubr
          481 917 -99 callsubr
          227 -807 40 callgsubr
          -18 callgsubr
        </CharString>
        <CharString name="Ncaron">
          24 callsubr
          266 897 -95 callgsubr
          318 -917 40 callgsubr
          -18 callgsubr
        </CharString>
        <CharString name="Ncommaaccent">
          124 -178 -21 220 -21 callgsubr
          196 63 195 70 hintmask 11101110
          393 -87 callgsubr
          264 199 40 callgsubr
          hintmask 11011110
          -18 callgsubr
        </CharString>
        <CharString name="Ndotaccent">
          124 58 callgsubr
          97 hstem
          89 70 199 62 193 70 vstem
          420 820 rmoveto
          97 -62 -97 vlineto
          264 -820 40 callgsubr
          -18 callgsubr
        </CharString>
        <CharString name="Ntilde">
          124 38 callsubr
          89 70 454 70 hintmask 11101110
          622 hmoveto
          -31 callsubr
          -66 callgsubr
          292 245 -87 callsubr
          hintmask 11010110
          -94 callgsubr
          hintmask 11101110
          -49 callsubr
        </CharString>
        <CharString name="O">
          -36 callgsubr
          hstem
          -9 callgsubr
          vstem
          -95 callsubr
          endchar
        </CharString>
        <CharString name="O.sc">
          1 -4 57 441 57 hstem
          44 63 435 63 vstem
          325 -4 rmoveto
          160 120 131 146 26 callgsubr
          -141 113 -137 168 hvcurveto
          -218 278 rmoveto
          108 85 112 133 127 90 -105 -115 -109 -84 -112 -133 -130 -88 106 115 vhcurveto
          endchar
        </CharString>
        <CharString name="OE">
          505 -5 67 -41 -21 331 62 255 62 5 -20 hstemhm
          42 70 528 70 hintmask 10110110
          710 62 rmoveto
          269 339 62 -339 255 393 62 -463 -180 vlineto
          hintmask 10101110
          102 -44 -96 83 -124 hhcurveto
          -190 -144 -171 -189 -182 136 -178 198 119 100 80 105 45 hvcurveto
          hintmask 01110110
          -180 472 vlineto
          hintmask 10110110
          62 vlineto
          -737 -4 16 callgsubr
          -153 -148 -102 -150 -161 hvcurveto
          endchar
        </CharString>
        <CharString name="Oacute">
          -7 callgsubr
          468 917 -99 callsubr
          -7 -812 -105 callsubr
        </CharString>
        <CharString name="Obreve">
          -36 callgsubr
          101 15 callgsubr
          42 70 166 196 164 70 hintmask 11101110
          -95 callsubr
          264 496 rmoveto
          hintmask 11011110
          -92 callsubr
          hintmask 11101110
          -51 callsubr
        </CharString>
        <CharString name="Ocircumflex">
          -7 callgsubr
          291 811 -100 callgsubr
          122 -837 -105 callsubr
        </CharString>
        <CharString name="Odblgrave">
          -36 callgsubr
          203 23 callgsubr
          428 808 -94 callsubr
          156 -923 -105 callsubr
        </CharString>
        <CharString name="Odieresis">
          -36 callgsubr
          105 94 hstem
          42 70 161 58 91 58 158 70 vstem
          331 820 -91 callgsubr
          -47 -825 -105 callsubr
        </CharString>
        <CharString name="Odotbelow">
          103 -166 98 63 9 callsubr
          hstem
          42 70 231 62 233 70 vstem
          405 2 callsubr
          32 161 -105 callsubr
        </CharString>
        <CharString name="Ograve">
          -7 callgsubr
          -95 callsubr
          258 452 -76 callsubr
        </CharString>
        <CharString name="Ohungarumlaut">
          -7 callgsubr
          397 917 -62 callsubr
          -64 -812 -105 callsubr
        </CharString>
        <CharString name="Oinvertedbreve">
          -36 callgsubr
          101 42 callsubr
          42 70 165 196 165 70 cntrmask 00001110
          hintmask 11011110
          375 882 rmoveto
          hintmask 11101110
          -93 callgsubr
          hintmask 11011110
          -22 callsubr
          -887 vmoveto
          -106 callgsubr
          endchar
        </CharString>
        <CharString name="Omacron">
          -36 callgsubr
          135 47 hstem
          -9 callgsubr
          vstem
          521 850 rmoveto
          47 -289 -47 vlineto
          143 -855 -105 callsubr
        </CharString>
        <CharString name="Omega">
          -72 callgsubr
        </CharString>
        <CharString name="Oogonek">
          103 -157 -21 174 62 593 64 hstem
          42 70 161 42 323 70 vstem
          348 -178 -25 callgsubr
          22 27 58 36 vhcurveto
          180 12 133 164 182 vvcurveto
          178 -134 183 -198 -190 -144 -171 -189 -174 122 -169 183 -15 vhcurveto
          -51 -47 callsubr
          -236 533 rmoveto
          147 102 149 161 154 109 -142 -154 -146 -102 -151 -161 -156 -107 143 154 vhcurveto
          endchar
        </CharString>
        <CharString name="Oslash">
          64 callsubr
          hstemhm
          -9 callgsubr
          hintmask 10011100
          573 11 callgsubr
          -30 -45 rlineto
          hintmask 01101100
          -2 callsubr
          hintmask 10011100
          -1 callsubr
          hintmask 10101100
          -42 callgsubr
          endchar
        </CharString>
        <CharString name="Oslashacute">
          64 callsubr
          227 -20 hstemhm
          -9 callgsubr
          hintmask 10011110
          573 11 callgsubr
          -30 -45 rlineto
          hintmask 01101110
          -2 callsubr
          hintmask 10011110
          -1 callsubr
          hintmask 10101110
          -42 callgsubr
          -170 562 -23 callgsubr
        </CharString>
        <CharString name="Otilde">
          -36 callgsubr
          110 -40 callgsubr
          -9 callgsubr
          hintmask 11101110
          -95 callsubr
          326 470 -87 callsubr
          hintmask 11010110
          -94 callgsubr
          hintmask 11101110
          -49 callsubr
        </CharString>
        <CharString name="P">
          -26 21 62 callsubr
          365 70 vstem
          159 -39 callsubr
        </CharString>
        <CharString name="P.sc">
          -105 55 callgsubr
          301 63 vstem
          146 hmoveto
          199 191 vlineto
          104 69 85 90 85 -74 89 -105 hvcurveto
          -247 -548 hlineto
          62 492 rmoveto
          182 hlineto
          65 54 -53 -65 -65 -44 -54 -69 hvcurveto
          -188 hlineto
          endchar
        </CharString>
        <CharString name="Q">
          101 -5 63 -63 223 -197 -21 652 63 hstemhm
          -9 callgsubr
          hintmask 00111100
          623 hmoveto
          69 hlineto
          -84 99 rlineto
          62 66 38 92 97 vvcurveto
          178 -134 183 -198 -190 -144 -171 -189 vhcurveto
          hintmask 10011100
          -182 135 -177 198 -1 vhcurveto
          74 66 26 42 54 hvcurveto
          hintmask 00111100
          hintmask 10011100
          -194 -5 16 callgsubr
          -154 -74 -26 -75 -47 -56 hvcurveto
          hintmask 01011100
          -57 68 rlineto
          -69 hlineto
          89 -106 rlineto
          hintmask 10011100
          -33 -42 -51 -21 -60 hhcurveto
          endchar
        </CharString>
        <CharString name="Q.sc">
          0 -4 57 -57 179 -154 -21 495 56 hstemhm
          44 63 435 63 hintmask 00111100
          532 hmoveto
          62 hlineto
          -71 78 rlineto
          51 51 31 70 74 vvcurveto
          26 callgsubr
          vhcurveto
          hintmask 10011100
          -141 113 -137 168 62 56 20 32 45 vhcurveto
          hintmask 00111100
          hintmask 10011100
          -163 5 rmoveto
          -130 -88 106 115 108 85 113 133 127 90 -106 -115 -55 -21 -55 -38 -42 hvcurveto
          hintmask 01011100
          -47 53 rlineto
          -62 hlineto
          75 -83 rlineto
          hintmask 10011100
          -24 -34 -42 -15 -48 hhcurveto
          endchar
        </CharString>
        <CharString name="R">
          5 21 62 callsubr
          370 70 vstem
          159 hmoveto
          -101 callgsubr
          endchar
        </CharString>
        <CharString name="R.sc">
          -78 55 callgsubr
          306 64 vstem
          146 hmoveto
          199 174 vlineto
          138 -199 rlineto
          72 hlineto
          -146 211 rlineto
          79 16 53 70 77 vvcurveto
          85 -75 89 -104 vhcurveto
          -253 -548 hlineto
          62 492 rmoveto
          187 hlineto
          66 53 -55 -63 -63 -45 -56 -68 hvcurveto
          -193 hlineto
          endchar
        </CharString>
        <CharString name="Racute">
          -5 callgsubr
          209 -20 hstem
          89 70 370 70 vstem
          410 919 -99 callsubr
          -165 -809 rmoveto
          -101 callgsubr
          endchar
        </CharString>
        <CharString name="Rcaron">
          -5 callgsubr
          209 -20 hstem
          89 70 370 70 vstem
          194 899 -95 callgsubr
          -73 -919 rmoveto
          -101 callgsubr
          endchar
        </CharString>
        <CharString name="Rcommaaccent">
          5 -178 -21 220 62 callsubr
          134 63 173 70 vstem
          331 -87 callgsubr
          -137 199 rmoveto
          -101 callgsubr
          endchar
        </CharString>
        <CharString name="Rdblgrave">
          -5 callgsubr
          208 -20 hstem
          89 70 370 70 vstem
          378 808 -94 callsubr
          -10 -918 rmoveto
          -101 callgsubr
          endchar
        </CharString>
        <CharString name="Rdotbelow">
          5 -166 98 89 62 callsubr
          137 62 171 70 vstem
          159 hmoveto
          -101 callgsubr
          199 -490 -50 callgsubr
          endchar
        </CharString>
        <CharString name="Rinvertedbreve">
          -5 callgsubr
          106 42 callsubr
          89 70 65 196 109 70 hintmask 11101111
          322 882 rmoveto
          hintmask 11110111
          -93 callgsubr
          hintmask 11101111
          -22 callsubr
          -163 -882 rmoveto
          -101 callgsubr
          endchar
        </CharString>
        <CharString name="S">
          -41 -6 62 597 62 56 callsubr
          538 633 -103 callgsubr
          endchar
        </CharString>
        <CharString name="S.sc">
          -123 -5 55 446 55 hstem
          58 64 299 66 vstem
          458 488 rmoveto
          41 -48 -63 22 -78 hhcurveto
          -122 -89 -55 -102 -90 63 -30 123 -26 hvcurveto
          116 -24 61 -21 -64 vvcurveto
          -59 -56 -30 -89 -91 -74 33 42 -44 vhcurveto
          -31 -52 rlineto
          -51 66 80 -27 92 hhcurveto
          123 90 47 104 99 -78 29 -124 26 hvcurveto
          -112 23 -51 17 60 vvcurveto
          60 45 36 101 70 56 -23 -35 35 vhcurveto
          endchar
        </CharString>
        <CharString name="Sacute">
          -7 callsubr
          406 933 -99 callsubr
          218 -190 -103 callgsubr
          endchar
        </CharString>
        <CharString name="Scaron">
          -7 callsubr
          191 913 -95 callgsubr
          309 -300 -103 callgsubr
          endchar
        </CharString>
        <CharString name="Schwa">
          89 -6 63 265 61 267 65 hstem
          29 75 516 75 vstem
          365 -6 rmoveto
          184 146 157 200 202 -148 162 -182 -122 -119 -72 -102 -47 hvcurveto
          66 -30 rlineto
          82 29 90 57 96 hhcurveto
          135 111 -114 -153 14 hvcurveto
          -587 hlineto
          -2 -5 0 -16 -12 vvcurveto
          -197 149 -159 187 vhcurveto
          63 vmoveto
          -139 -113 114 151 -9 hvcurveto
          516 hlineto
          -152 -9 -109 -113 -137 hhcurveto
          endchar
        </CharString>
        <CharString name="Scircumflex">
          -7 callsubr
          229 827 -100 callgsubr
          347 -215 -103 callgsubr
          endchar
        </CharString>
        <CharString name="Sdotbelow">
          -41 -166 98 62 62 597 62 hstem
          58 72 146 62 161 74 vstem
          538 633 -103 callgsubr
          -166 -743 -50 callgsubr
          endchar
        </CharString>
        <CharString name="T">
          -38 21 -21 23 callsubr
          593 710 -45 callgsubr
        </CharString>
        <CharString name="T.sc">
          -117 21 -21 492 56 hstem
          235 62 vstem
          508 548 rmoveto
          -486 -56 213 -492 62 492 211 hlineto
          endchar
        </CharString>
        <CharString name="Tbar">
          -7 21 -21 366 39 243 62 hstem
          286 70 vstem
          609 11 callgsubr
          -576 -62 253 -243 -220 -39 220 -366 70 366 220 39 -220 243 253 hlineto
          endchar
        </CharString>
        <CharString name="Tcaron">
          -38 21 -21 648 62 207 -20 hstem
          270 70 vstem
          184 897 -95 callgsubr
          371 -207 -45 callgsubr
        </CharString>
        <CharString name="Tdotbelow">
          -38 41 callsubr
          23 callsubr
          334 2 callsubr
          321 876 -45 callgsubr
        </CharString>
        <CharString name="Thorn">
          -45 21 -21 121 63 323 62 141 -20 hstem
          89 70 347 69 vstem
          364 569 rmoveto
          -205 141 -70 -710 70 121 212 hlineto
          122 82 109 116 110 -88 113 -123 hvcurveto
          4 -385 rmoveto
          -209 323 203 hlineto
          78 66 -75 -86 -83 -53 -79 -85 hvcurveto
          endchar
        </CharString>
        <CharString name="U">
          107 -5 63 652 -46 callgsubr
          endchar
        </CharString>
        <CharString name="U.sc">
          4 -4 57 495 -20 hstem
          75 62 377 62 vstem
          325 53 rmoveto
          -143 -45 107 111 hvcurveto
          277 -62 -277 vlineto
          -140 63 -135 188 183 67 127 148 vhcurveto
          277 -62 -277 vlineto
          -108 -41 -110 -148 vhcurveto
          endchar
        </CharString>
        <CharString name="Uacute">
          27 callgsubr
          471 917 -99 callsubr
          -8 -749 rmoveto
          -105 callgsubr
          endchar
        </CharString>
        <CharString name="Ubreve">
          -30 callsubr
          126 15 callgsubr
          79 69 132 196 131 70 hintmask 11101110
          -96 callsubr
          1 793 rmoveto
          hintmask 11011110
          -92 callsubr
          hintmask 11101110
          -51 callsubr
        </CharString>
        <CharString name="Ucircumflex">
          27 callgsubr
          293 811 -100 callgsubr
          122 -774 rmoveto
          -105 callgsubr
          endchar
        </CharString>
        <CharString name="Udblgrave">
          -30 callsubr
          228 40 callsubr
          436 808 -94 callsubr
          150 -860 rmoveto
          -105 callgsubr
          endchar
        </CharString>
        <CharString name="Udieresis">
          -30 callsubr
          130 94 hstem
          79 69 127 58 91 58 125 70 vstem
          333 820 -91 callgsubr
          -47 -762 rmoveto
          -105 callgsubr
          endchar
        </CharString>
        <CharString name="Udotbelow">
          107 -166 98 63 10 callsubr
          hstem
          79 69 201 62 196 -83 callsubr
          34 -224 -50 callgsubr
          endchar
        </CharString>
        <CharString name="Ugrave">
          -51 callgsubr
          -5 749 -76 callsubr
        </CharString>
        <CharString name="Uhungarumlaut">
          -51 callgsubr
          21 859 -62 callsubr
          endchar
        </CharString>
        <CharString name="Uinvertedbreve">
          -30 callsubr
          126 42 callsubr
          79 69 131 196 132 70 hintmask 11011110
          377 882 rmoveto
          hintmask 11101110
          -93 callgsubr
          hintmask 11011110
          -22 callsubr
          -824 vmoveto
          -105 callgsubr
          endchar
        </CharString>
        <CharString name="Umacron">
          -30 callsubr
          160 47 hstem
          79 69 459 -83 callsubr
          146 792 -40 callsubr
        </CharString>
        <CharString name="Uogonek">
          108 -157 -21 174 62 652 -20 hstem
          79 69 127 42 290 70 vstem
          377 58 rmoveto
          -176 -53 145 149 hvcurveto
          358 -69 -358 vlineto
          -173 68 -168 202 -14 vhcurveto
          -51 -47 callsubr
          0 callgsubr
          203 9 77 161 186 vvcurveto
          358 -70 -358 vlineto
          -145 -50 -149 -180 vhcurveto
          endchar
        </CharString>
        <CharString name="Uring">
          -30 callsubr
          96 27 77 27 hstem
          79 69 156 34 81 33 155 70 vstem
          304 852 -85 callsubr
          -1 -832 rmoveto
          -105 callgsubr
          endchar
        </CharString>
        <CharString name="Utilde">
          -30 callsubr
          135 -40 callgsubr
          79 69 459 70 hintmask 11101110
          -96 callsubr
          63 767 -87 callsubr
          hintmask 11010110
          -94 callgsubr
          hintmask 11101110
          -49 callsubr
        </CharString>
        <CharString name="V">
          31 -75 callsubr
          hstem
          13 11 callgsubr
          296 -710 rlineto
          61 hlineto
          296 710 rlineto
          -73 hlineto
          -253 -623 -254 623 rlineto
          endchar
        </CharString>
        <CharString name="V.sc">
          -60 32 callgsubr
          18 548 rmoveto
          249 -548 rlineto
          54 hlineto
          249 548 rlineto
          -66 hlineto
          -209 -461 -211 461 rlineto
          endchar
        </CharString>
        <CharString name="W">
          398 -75 callsubr
          hstem
          480 402 -97 callsubr
          endchar
        </CharString>
        <CharString name="W.alt">
          414 -75 callsubr
          hstem
          963 11 callgsubr
          -190 -609 -208 609 rlineto
          -76 hlineto
          -200 -609 -190 609 rlineto
          -78 hlineto
          226 -710 rlineto
          73 hlineto
          208 597 214 -597 rlineto
          73 hlineto
          226 710 rlineto
          endchar
        </CharString>
        <CharString name="W.sc">
          252 32 callgsubr
          410 307 rmoveto
          -108 -231 -216 472 rlineto
          -68 hlineto
          252 -548 rlineto
          56 hlineto
          124 264 124 -264 rlineto
          55 hlineto
          253 548 rlineto
          -69 hlineto
          -215 -472 -111 231 105 237 rlineto
          -59 hlineto
          -84 -192 -83 192 rlineto
          -59 hlineto
          endchar
        </CharString>
        <CharString name="Wacute">
          398 -20 callsubr
          614 917 -99 callsubr
          -48 -405 -97 callsubr
          endchar
        </CharString>
        <CharString name="Wcircumflex">
          398 -20 callsubr
          437 811 -100 callgsubr
          81 -430 -97 callsubr
          endchar
        </CharString>
        <CharString name="Wdieresis">
          398 12 callsubr
          419 67 callgsubr
          477 820 -91 callgsubr
          -88 -418 -97 callsubr
          endchar
        </CharString>
        <CharString name="Wgrave">
          398 -20 callsubr
          480 402 -97 callsubr
          160 102 -76 callsubr
        </CharString>
        <CharString name="X">
          -46 callsubr
        </CharString>
        <CharString name="X.sc">
          -95 32 callgsubr
          13 548 rmoveto
          229 -278 -222 -270 rlineto
          70 hlineto
          186 225 187 -225 rlineto
          69 hlineto
          -222 270 229 278 rlineto
          -70 hlineto
          -193 -233 -193 233 rlineto
          endchar
        </CharString>
        <CharString name="Y">
          3 -75 callsubr
          hstem
          290 70 vstem
          -85 callgsubr
          endchar
        </CharString>
        <CharString name="Y.sc">
          -86 32 callgsubr
          249 63 vstem
          20 548 rmoveto
          229 -345 rlineto
          -203 63 202 vlineto
          232 346 rlineto
          -69 hlineto
          -194 -290 -193 290 rlineto
          endchar
        </CharString>
        <CharString name="Yacute">
          3 -20 callsubr
          290 70 vstem
          -85 callgsubr
          324 207 -23 callgsubr
        </CharString>
        <CharString name="Ycircumflex">
          3 -20 callsubr
          290 70 vstem
          -85 callgsubr
          147 101 -49 callgsubr
        </CharString>
        <CharString name="Ydieresis">
          3 12 callsubr
          221 58 11 70 10 58 vstem
          -85 callgsubr
          186 110 -18 callsubr
        </CharString>
        <CharString name="Ygrave">
          3 -20 callsubr
          290 70 vstem
          -85 callgsubr
          226 97 -76 callsubr
        </CharString>
        <CharString name="Ytilde">
          3 38 callsubr
          290 70 hintmask 11101100
          -85 callgsubr
          294 115 -87 callsubr
          hintmask 11010100
          -94 callgsubr
          hintmask 11101100
          -49 callsubr
        </CharString>
        <CharString name="Z">
          -19 0 62 586 62 hstem
          31 hmoveto
          -78 callsubr
          endchar
        </CharString>
        <CharString name="Z.sc">
          -96 0 56 436 56 hstem
          37 hmoveto
          474 56 -396 hlineto
          397 442 rlineto
          50 -469 -56 395 vlineto
          -401 -443 rlineto
          endchar
        </CharString>
        <CharString name="Zacute">
          -19 12 callgsubr
          423 917 -99 callsubr
          -306 -807 rmoveto
          -78 callsubr
          endchar
        </CharString>
        <CharString name="Zcaron">
          -19 12 callgsubr
          208 897 -95 callgsubr
          -215 3 callsubr
          endchar
        </CharString>
        <CharString name="Zdotaccent">
          -19 0 62 586 62 110 97 hstem
          300 62 vstem
          31 hmoveto
          -78 callsubr
          331 765 -27 callsubr
        </CharString>
        <CharString name="Zdotbelow">
          -19 -166 98 68 62 586 62 hstem
          292 62 vstem
          31 hmoveto
          -78 callsubr
          323 -221 -50 callgsubr
          endchar
        </CharString>
        <CharString name="a">
          -69 callsubr
          -23 callsubr
          hintmask 10111100
          -79 callgsubr
          hintmask 01111010
          -84 callgsubr
          hintmask 10111100
          -107 callsubr
          endchar
        </CharString>
        <CharString name="a.alt">
          -28 -10 60 -29 -21 470 47 -47 60 hstemhm
          40 70 368 68 hintmask 10101100
          287 -10 rmoveto
          84 68 46 69 39 hvcurveto
          hintmask 01101100
          -105 68 517 -68 -106 vlineto
          hintmask 10011100
          69 -39 -70 50 -87 hhcurveto
          -136 -106 -123 -148 -142 101 -127 146 hvcurveto
          191 188 rmoveto
          -72 -30 -63 -56 -84 hhcurveto
          -111 -80 97 112 102 76 109 113 80 69 -57 -77 30 hvcurveto
          endchar
        </CharString>
        <CharString name="a.alt2">
          -106 -10 52 -21 -21 266 43 170 51 -5 callsubr
          hintmask 01111100
          473 hmoveto
          323 vlineto
          122 -73 85 -136 -72 -66 -29 -39 -59 vhcurveto
          24 -45 rlineto
          40 58 56 22 53 hhcurveto
          92 55 -60 -90 hvcurveto
          -47 vlineto
          12 -27 -55 15 -72 hhcurveto
          -103 -115 -47 -110 hvcurveto
          hintmask 10111100
          -91 75 -71 98 77 77 29 63 48 vhcurveto
          hintmask 01111100
          -82 vlineto
          -20 115 rmoveto
          hintmask 10111100
          -50 -34 -71 -23 -61 hhcurveto
          -66 -58 46 69 79 88 30 74 48 50 -9 -18 47 hvcurveto
          -85 vlineto
          -12 -6 -14 -11 -13 vhcurveto
          endchar
        </CharString>
        <CharString name="aacute">
          -69 callsubr
          200 -20 -23 callsubr
          hintmask 10111110
          -79 callgsubr
          hintmask 01111101
          -84 callgsubr
          hintmask 10111110
          -107 callsubr
          134 688 -23 callgsubr
        </CharString>
        <CharString name="abreve">
          -69 callsubr
          99 15 callgsubr
          33 65 67 196 44 68 -68 93 hintmask 1011101110000000
          -79 callgsubr
          hintmask 0111101101000000
          -84 callgsubr
          hintmask 1011101110000000
          -107 callsubr
          41 622 rmoveto
          hintmask 1011011110000000
          -92 callsubr
          hintmask 1011101110000000
          -51 callsubr
        </CharString>
        <CharString name="acircumflex">
          -69 callsubr
          200 -20 -23 callsubr
          hintmask 10111110
          -79 callgsubr
          hintmask 01111101
          -84 callgsubr
          hintmask 10111110
          -107 callsubr
          -44 582 -49 callgsubr
        </CharString>
        <CharString name="acute">
          -426 3 callgsubr
          180 730 -23 callgsubr
        </CharString>
        <CharString name="adblgrave">
          -69 callsubr
          200 -20 -23 callsubr
          hintmask 10111110
          -79 callgsubr
          hintmask 01111101
          -84 callgsubr
          hintmask 10111110
          -107 callsubr
          110 578 16 callsubr
        </CharString>
        <CharString name="adieresis">
          -69 callsubr
          103 94 hstemhm
          33 65 62 58 91 58 38 68 -68 93 hintmask 1011111110000000
          -79 callgsubr
          hintmask 0111111101000000
          -84 callgsubr
          hintmask 1011111110000000
          -107 callsubr
          -4 591 -18 callsubr
        </CharString>
        <CharString name="ae">
          44 callgsubr
          hstemhm
          33 64 287 64 389 65 hintmask 11011110
          205 -10 -70 callsubr
          hintmask 10111110
          -43 callgsubr
          hintmask 11011110
          17 callgsubr
        </CharString>
        <CharString name="aeacute">
          44 callgsubr
          200 -20 hstemhm
          33 64 287 64 389 65 hintmask 11011111
          535 730 -99 callsubr
          -244 -630 -70 callsubr
          hintmask 10111111
          -43 callgsubr
          hintmask 11011111
          17 callgsubr
        </CharString>
        <CharString name="afii61352">
          492 21 -21 348 49 266 49 -2 43 callgsubr
          454 70 78 57 246 58 hintmask 11011111
          622 hmoveto
          -31 callsubr
          -66 callgsubr
          782 -232 rmoveto
          107 74 85 97 hvcurveto
          hintmask 11101111
          47 callsubr
          vhcurveto
          7 callsubr
        </CharString>
        <CharString name="agrave">
          -69 callsubr
          200 -20 -23 callsubr
          hintmask 10111110
          -79 callgsubr
          hintmask 01111101
          -84 callgsubr
          hintmask 10111110
          -107 callsubr
          35 578 -76 callsubr
        </CharString>
        <CharString name="ainvertedbreve">
          -69 callsubr
          99 42 callsubr
          33 65 72 196 39 68 -68 93 hintmask 1011101110000000
          -79 callgsubr
          hintmask 0111101101000000
          -84 callgsubr
          hintmask 1011011110000000
          -107 callsubr
          46 653 rmoveto
          hintmask 1011101110000000
          -93 callgsubr
          hintmask 1011011110000000
          -22 callsubr
          endchar
        </CharString>
        <CharString name="amacron">
          -69 callsubr
          133 47 -23 callsubr
          hintmask 10111110
          -79 callgsubr
          hintmask 01111101
          -84 callgsubr
          hintmask 10111110
          -107 callsubr
          186 621 -40 callsubr
        </CharString>
        <CharString name="ampersand">
          19 -10 55 -24 -21 666 53 hstemhm
          47 66 -13 63 218 63 87 58 hintmask 01101110
          661 hmoveto
          -133 138 38 61 22 75 1 82 rlinecurve
          -58 hlineto
          -65 -16 -60 -27 -51 vhcurveto
          -199 208 rlineto
          85 56 70 53 82 vvcurveto
          83 -73 57 -93 -101 -77 -68 -88 -50 25 -42 72 -77 vhcurveto
          hintmask 10110110
          -80 -53 -70 -62 -96 vvcurveto
          -115 102 -78 125 85 74 36 60 56 vhcurveto
          hintmask 01110110
          82 -86 rlineto
          hintmask 10110110
          -290 45 rmoveto
          -83 -85 47 89 72 53 51 70 49 hvcurveto
          215 -227 rlineto
          -50 -44 -59 -31 -67 hhcurveto
          hintmask 10101110
          -118 520 rmoveto
          55 49 46 66 60 43 -37 -52 -57 -53 -40 -78 -51 vhcurveto
          -71 75 -16 29 32 vvcurveto
          endchar
        </CharString>
        <CharString name="aogonek">
          -103 -154 -21 165 52 224 43 170 51 hstemhm
          33 65 276 42 -11 68 -68 93 hintmask 11111100
          449 -175 rmoveto
          -60 callgsubr
          hintmask 11111001
          29 23 27 59 37 vhcurveto
          60 vlineto
          hintmask 11111010
          -17 -8 9 19 hvcurveto
          235 vlineto
          129 -80 78 -130 -64 -65 -23 -45 -67 vhcurveto
          24 -45 rlineto
          40 57 57 22 53 hhcurveto
          91 56 -58 -92 hvcurveto
          -47 vlineto
          17 -43 -58 10 -53 hhcurveto
          -128 -90 -65 -92 -91 75 -71 98 83 77 35 62 48 hvcurveto
          hintmask 11111100
          2 -41 1 -23 12 -17 20 -6 rlinecurve
          -52 -47 callsubr
          -227 217 rmoveto
          -70 -54 50 65 65 66 44 96 hvcurveto
          hintmask 11111010
          50 50 -10 -17 45 hvcurveto
          -85 vlineto
          -12 -6 -15 -12 -12 vhcurveto
          -44 -30 -65 -29 -70 hhcurveto
          endchar
        </CharString>
        <CharString name="apostrophe">
          -104 3 callgsubr
          348 52 callsubr
          endchar
        </CharString>
        <CharString name="approxequal">
          -216 173 52 -10 52 20 51 -9 51 hstemhm
          hintmask 10100000
          337 357 rmoveto
          -11 -11 -16 -8 -27 hhcurveto
          hintmask 10010000
          -52 -30 42 -58 hhcurveto
          -39 -24 -17 15 callsubr
          17 20 17 hvcurveto
          -30 -81 rmoveto
          -11 -11 -16 -7 -27 hhcurveto
          hintmask 01100000
          -52 -30 42 -58 hhcurveto
          -39 -24 -18 15 callsubr
          16 18 17 hvcurveto
          endchar
        </CharString>
        <CharString name="aring">
          -69 callsubr
          69 27 77 27 52 callgsubr
          hintmask 1011111111000000
          -79 callgsubr
          hintmask 0111111110100000
          -84 callgsubr
          hintmask 1011111111000000
          -107 callsubr
          -33 623 -85 callsubr
          endchar
        </CharString>
        <CharString name="aringacute">
          -69 callsubr
          69 27 77 27 -27 177 52 callgsubr
          hintmask 1011110111100000
          -79 callgsubr
          hintmask 0111110111010000
          -84 callgsubr
          hintmask 1011101111100000
          -107 callsubr
          134 838 -99 callsubr
          -81 -105 rmoveto
          -40 31 -26 43 43 31 26 40 vhcurveto
          hintmask 1011110111100000
          39 -31 26 -43 -43 -31 -26 -39 vhcurveto
          74 38 rmoveto
          23 18 -15 -23 -23 -20 -16 -21 -23 -17 17 22 23 18 15 22 hvcurveto
          endchar
        </CharString>
        <CharString name="asciicircum">
          -109 324 -21 407 -20 hstem
          101 303 rmoveto
          169 343 166 -343 rlineto
          60 hlineto
          -197 407 rlineto
          -58 hlineto
          -198 -407 rlineto
          endchar
        </CharString>
        <CharString name="asciitilde">
          -137 241 45 13 45 hstem
          66 241 rmoveto
          43 hlineto
          2 17 56 47 vhcurveto
          48 46 -58 66 hhcurveto
          86 27 91 6 hvcurveto
          -43 hlineto
          -5 -18 -47 -51 vhcurveto
          -56 -43 58 -61 hhcurveto
          -79 -29 -90 -13 hvcurveto
          endchar
        </CharString>
        <CharString name="asterisk">
          -327 545 -21 189 -20 hstem
          142 37 vstem
          118 524 rmoveto
          43 65 42 -65 32 22 -44 62 68 22 -11 36 -69 -26 rlineto
          73 -37 -73 vlineto
          -69 26 -11 -36 68 -22 -43 -62 rlineto
          endchar
        </CharString>
        <CharString name="at">
          189 -146 34 96 37 -16 43 186 39 138 44 114 34 hstemhm
          47 36 149 46 266 45 156 36 hintmask 1101111111000000
          417 603 rmoveto
          -193 -177 -147 -226 -217 164 -159 199 56 57 13 27 54 hvcurveto
          -13 32 rlineto
          -24 -49 -47 -14 -57 hhcurveto
          -188 -140 152 190 197 151 142 182 187 142 -152 -193 -73 -21 -130 -83 -46 -6 41 59 hvcurveto
          129 vlineto
          96 -15 109 -148 -62 -54 -20 -32 -48 vhcurveto
          18 -39 rlineto
          29 39 49 18 52 hhcurveto
          98 26 -66 -95 hvcurveto
          8 -22 -47 15 -58 hhcurveto
          -88 -97 -32 -102 hvcurveto
          hintmask 1011111111000000
          -78 56 -56 94 70 62 32 39 37 vhcurveto
          hintmask 1101111111000000
          -48 5 12 -44 67 hhcurveto
          135 11 181 57 227 -167 154 -197 hvcurveto
          61 -533 rmoveto
          hintmask 1011111111000000
          -12 -25 -35 -10 -33 hhcurveto
          -62 -45 38 55 71 67 22 70 64 47 -20 -2 17 hvcurveto
          -40 vlineto
          -37 -9 -39 -56 -26 vhcurveto
          endchar
        </CharString>
        <CharString name="atilde">
          -69 callsubr
          108 43 -3 45 7 -20 -23 callsubr
          hintmask 1011101110000000
          -79 callgsubr
          hintmask 0111101101000000
          -84 callgsubr
          hintmask 1011101110000000
          -107 callsubr
          103 596 -87 callsubr
          hintmask 1011010110000000
          -94 callgsubr
          hintmask 1011101110000000
          -49 callsubr
        </CharString>
        <CharString name="b">
          -31 51 callsubr
          75 68 365 69 hintmask 10111100
          330 -10 rmoveto
          140 107 123 146 136 -90 135 -146 -86 -66 -48 -70 -46 hvcurveto
          318 -68 vlineto
          hintmask 01111100
          -730 61 101 vlineto
          hintmask 10111100
          -65 39 73 -46 82 hhcurveto
          -16 60 rmoveto
          -68 -93 56 72 -10 hvcurveto
          162 vlineto
          70 33 64 60 82 hhcurveto
          110 76 -102 -109 -107 -80 -102 -114 hvcurveto
          endchar
        </CharString>
        <CharString name="backslash">
          -80 -75 callsubr
          hstem
          28 11 callgsubr
          436 -710 rlineto
          76 hlineto
          -435 710 rlineto
          endchar
        </CharString>
        <CharString name="bar">
          -417 -109 -21 905 -20 hstem
          86 59 vstem
          145 -130 rmoveto
          905 -59 -905 vlineto
          endchar
        </CharString>
        <CharString name="braceleft">
          -389 -10 -21 771 -20 hstemhm
          92 62 -62 117 hintmask 11010000
          209 683 rmoveto
          57 -94 vlineto
          -7 -16 -5 -25 hvcurveto
          -270 vlineto
          -17 -11 -36 -28 vhcurveto
          -52 vlineto
          25 -3 14 -26 -26 vvcurveto
          -281 vlineto
          -23 12 -7 11 vhcurveto
          94 57 hlineto
          hintmask 11100000
          -55 272 hlineto
          15 -6 29 -21 18 vhcurveto
          21 19 6 27 16 vvcurveto
          261 vlineto
          endchar
        </CharString>
        <CharString name="braceright">
          -389 -10 -21 771 -20 hstemhm
          50 117 -62 62 hintmask 11010000
          105 683 rmoveto
          -261 vlineto
          -16 5 -27 21 -19 vhcurveto
          -21 -18 -5 -29 -15 vvcurveto
          -272 vlineto
          hintmask 11100000
          -55 -57 94 hlineto
          10 13 7 23 hvcurveto
          281 vlineto
          26 13 26 25 3 vhcurveto
          52 vlineto
          -28 -10 36 17 hvcurveto
          270 vlineto
          25 -17 5 -6 vhcurveto
          -94 -57 hlineto
          endchar
        </CharString>
        <CharString name="bracketleft">
          -390 -19 -21 780 -20 hstemhm
          88 64 -64 119 hintmask 11010000
          207 -40 rmoveto
          57 vlineto
          hintmask 11100000
          -55 666 hlineto
          hintmask 11010000
          55 57 -119 -780 hlineto
          endchar
        </CharString>
        <CharString name="bracketright">
          -390 -19 -21 780 -20 hstemhm
          50 120 -64 64 hintmask 11100000
          170 -40 rmoveto
          780 -120 -57 vlineto
          hintmask 11010000
          56 -666 hlineto
          hintmask 11100000
          -56 -57 hlineto
          endchar
        </CharString>
        <CharString name="breve">
          -366 629 15 callgsubr
          43 196 hintmask 10100000
          141 664 rmoveto
          hintmask 01100000
          -92 callsubr
          hintmask 10100000
          -51 callsubr
        </CharString>
        <CharString name="brokenbar">
          -414 -109 -21 905 -20 hstem
          87 60 vstem
          87 277 rmoveto
          -407 60 407 vlineto
          -60 498 rmoveto
          -407 60 407 vlineto
          endchar
        </CharString>
        <CharString name="bullet">
          -297 256 179 hstem
          86 179 vstem
          265 346 rmoveto
          48 -40 41 -49 -49 -41 -41 -48 -50 41 -40 49 49 40 40 50 vhcurveto
          endchar
        </CharString>
        <CharString name="c">
          -99 -44 callsubr
          hstem
          39 69 vstem
          39 262 -99 callgsubr
          endchar
        </CharString>
        <CharString name="c_t">
          232 -10 67 -42 -21 476 60 -9 -20 209 37 hstemhm
          39 69 291 36 207 68 hintmask 10011111
          852 80 rmoveto
          -4 -9 -32 -19 -38 hhcurveto
          -32 -28 18 38 -3 hvcurveto
          354 119 54 -119 vlineto
          130 -1 2 96 -160 hhcurveto
          -99 -53 -59 -81 -47 24 -41 19 -33 hvcurveto
          hintmask 10101111
          28 -37 -44 16 -66 hhcurveto
          -157 -99 -130 -141 -136 104 -133 157 90 96 47 82 31 hvcurveto
          -67 20 rlineto
          -55 -17 -78 -34 -55 hhcurveto
          -107 -85 96 113 105 70 106 115 65 55 -26 -59 33 hvcurveto
          66 21 rlineto
          -16 35 -61 95 68 vvcurveto
          58 31 48 69 vhcurveto
          hintmask 01011111
          90 17 -31 -158 hvcurveto
          -72 -54 72 -373 hlineto
          -10 callgsubr
          15 vhcurveto
          endchar
        </CharString>
        <CharString name="cacute">
          -99 -53 callgsubr
          vstem
          390 730 -99 callsubr
          -265 -358 -99 callgsubr
          endchar
        </CharString>
        <CharString name="caron">
          -318 645 -21 106 -20 hstem
          42 710 -95 callgsubr
          endchar
        </CharString>
        <CharString name="caron.alt">
          -426 3 callgsubr
          180 730 -23 callgsubr
        </CharString>
        <CharString name="ccaron">
          -99 -53 callgsubr
          vstem
          175 710 -95 callgsubr
          -174 -468 -99 callgsubr
          endchar
        </CharString>
        <CharString name="ccedilla">
          -99 34 callgsubr
          36 59 420 60 hstem
          39 69 260 39 vstem
          206 -78 callgsubr
          26 42 92 6 78 51 28 71 rlinecurve
          -67 20 rlineto
          -48 -16 -69 -41 -67 hhcurveto
          -103 -87 94 118 119 83 89 106 64 56 -32 -53 29 hvcurveto
          66 21 rlineto
          76 -37 -77 48 -98 hhcurveto
          -154 -107 -120 -148 -142 100 -119 141 -10 hvcurveto
          -42 -78 -77 callsubr
        </CharString>
        <CharString name="ccircumflex">
          -99 -53 callgsubr
          vstem
          213 624 -100 callgsubr
          -136 -383 -99 callgsubr
          endchar
        </CharString>
        <CharString name="cdotaccent">
          -99 -44 callsubr
          103 97 hstem
          39 69 159 62 vstem
          39 262 -99 callgsubr
          290 371 -27 callsubr
        </CharString>
        <CharString name="cedilla">
          -365 34 callgsubr
          63 -20 hstem
          184 39 vstem
          22 -78 callgsubr
          35 56 -33 13 -57 -105 -77 callsubr
        </CharString>
        <CharString name="cent">
          -87 -99 -21 110 61 417 61 116 -20 hstem
          43 70 163 37 vstem
          313 -120 rmoveto
          110 vlineto
          72 105 43 86 32 hvcurveto
          -67 20 -14 -51 -76 -34 -52 -3 rlinecurve
          417 vlineto
          57 -3 50 -26 31 -54 65 21 rcurveline
          -37 74 -67 46 -99 3 rrcurveto
          116 -37 -116 vlineto
          -143 -13 -90 -123 -135 vvcurveto
          -127 97 -129 136 -11 vhcurveto
          -111 vlineto
          -163 378 rmoveto
          97 59 101 104 10 vhcurveto
          -412 vlineto
          -94 15 -69 90 99 vvcurveto
          endchar
        </CharString>
        <CharString name="circumflex">
          -318 645 -21 106 -20 hstem
          80 624 -49 callgsubr
        </CharString>
        <CharString name="colon">
          -460 21 -21 518 -20 hstem
          65 58 vstem
          123 420 rmoveto
          98 -58 -98 vlineto
          58 -420 rmoveto
          98 -58 -98 vlineto
          endchar
        </CharString>
        <CharString name="colonmonetary">
          -97 -120 170 -39 -21 480 175 -115 -20 hstemhm
          40 69 120 37 63 37 hintmask 10101110
          229 -120 rmoveto
          37 112 hlineto
          hintmask 01101110
          -1 11 12 -1 12 hhcurveto
          9 10 1 1 9 hvcurveto
          hintmask 10101110
          -112 37 118 vlineto
          72 17 57 45 23 59 -67 20 rcurveline
          -48 -16 -69 -41 -67 hhcurveto
          -103 -87 94 118 119 83 89 106 63 56 -32 -53 29 hvcurveto
          67 21 -29 58 -51 42 -67 16 rlinecurve
          123 -37 -117 vlineto
          hintmask 10011110
          2 -10 -9 0 -10 hhcurveto
          -12 -11 -1 -1 -11 hvcurveto
          hintmask 10101110
          117 -37 -125 vlineto
          -114 -30 -75 -104 -124 vvcurveto
          -123 76 -107 113 -32 vhcurveto
          endchar
        </CharString>
        <CharString name="comma">
          -423 -60 -21 179 -20 hstem
          80 66 vstem
          121 -81 36 callgsubr
        </CharString>
        <CharString name="commaaccent">
          -494 5 callsubr
          -20 hstem
          57 63 vstem
          95 -87 callgsubr
          endchar
        </CharString>
        <CharString name="copyright">
          184 -7 33 97 59 347 60 93 33 hstem
          48 35 106 70 490 35 vstem
          415 -7 rmoveto
          212 45 callgsubr
          -212 -211 44 callsubr
          211 hvcurveto
          33 vmoveto
          -191 -141 141 187 188 142 140 190 192 142 -140 -189 -194 -146 -133 -188 hvcurveto
          8 97 rmoveto
          101 73 67 49 19 hvcurveto
          -66 19 rlineto
          -47 -22 -59 -29 -50 hhcurveto
          -72 -88 63 110 84 52 90 106 39 60 -13 -59 27 hvcurveto
          66 21 rlineto
          72 -31 -74 39 -87 hhcurveto
          -155 -73 -122 -112 -141 112 -91 122 hvcurveto
          endchar
        </CharString>
        <CharString name="currency">
          -111 146 -21 30 48 267 49 32 -20 hstem
          88 57 246 57 vstem
          86 551 rmoveto
          -33 -33 70 -71 rlineto
          -23 -31 -12 -38 -42 vvcurveto
          -41 13 -38 23 -32 vhcurveto
          -71 -71 30 -29 71 69 rlineto
          -24 31 38 -15 45 hhcurveto
          45 39 15 24 29 hvcurveto
          74 -69 30 29 -73 72 rlineto
          23 31 13 39 40 vvcurveto
          41 -13 39 -22 30 vhcurveto
          72 72 -34 33 -70 -71 rlineto
          24 -31 -38 15 -44 hhcurveto
          -44 -39 -14 -25 -29 hvcurveto
          -11 -145 rmoveto
          76 55 59 68 68 55 -58 -75 -74 -55 -60 -68 -68 -55 59 73 vhcurveto
          endchar
        </CharString>
        <CharString name="d">
          -26 -10 60 -32 -21 473 60 200 -6 callsubr
          hintmask 10111100
          289 -10 -21 callsubr
          hintmask 01111100
          -29 28 -24 32 vhcurveto
          hintmask 10111010
          22 callsubr
          hintmask 10111100
          -88 callsubr
          -32 callsubr
          hvcurveto
          -32 callgsubr
        </CharString>
        <CharString name="d.alt">
          -30 51 callsubr
          40 70 365 68 hintmask 01111100
          543 hmoveto
          730 -68 -318 vlineto
          65 -43 -67 53 -88 hhcurveto
          -137 -100 -124 -147 hvcurveto
          hintmask 10111100
          -140 104 -129 145 76 70 43 64 40 vhcurveto
          hintmask 01111100
          -97 vlineto
          179 vmoveto
          hintmask 10111100
          -71 -8 -94 -58 -69 hhcurveto
          -109 -85 96 113 106 73 105 112 72 83 -57 -73 25 hvcurveto
          endchar
        </CharString>
        <CharString name="dagger">
          -242 -109 -21 370 62 473 -20 hstem
          171 65 vstem
          236 -130 rmoveto
          370 131 62 -131 473 -65 -473 -132 -62 132 -370 vlineto
          endchar
        </CharString>
        <CharString name="daggerdbl">
          -238 -109 -21 289 63 110 63 380 -20 hstem
          173 65 vstem
          238 -130 rmoveto
          289 131 63 -131 110 131 63 -131 380 -65 -380 -132 -63 132 -110 -132 -63 132 -289 vlineto
          endchar
        </CharString>
        <CharString name="dcaron">
          -26 -10 60 -32 -21 473 60 200 -6 callsubr
          hintmask 10111100
          710 730 -99 callsubr
          -335 -630 -21 callsubr
          hintmask 01111100
          -29 28 -24 32 vhcurveto
          hintmask 10111010
          22 callsubr
          hintmask 10111100
          -88 callsubr
          -32 callsubr
          hvcurveto
          -32 callgsubr
        </CharString>
        <CharString name="dcroat">
          -26 -10 60 -32 -21 473 60 87 46 67 -6 callsubr
          hintmask 10111110
          289 -10 -21 callsubr
          hintmask 01111110
          -29 28 -24 32 vhcurveto
          hintmask 10111101
          22 callsubr
          hintmask 10111110
          -17 -7 9 19 hvcurveto
          529 70 46 -70 67 -68 -67 -114 -46 114 -205 vlineto
          65 -39 -71 53 -87 hhcurveto
          -138 -100 -124 -147 -140 104 -129 145 hvcurveto
          15 60 rmoveto
          -109 -85 96 113 -32 callsubr
          hvcurveto
          -32 callgsubr
        </CharString>
        <CharString name="ddotbelow">
          -26 -166 98 58 60 -32 -21 473 60 200 -20 hstemhm
          40 70 157 62 146 68 -68 92 hintmask 1101111100000000
          329 2 callsubr
          22 156 -21 callsubr
          hintmask 1011111100000000
          -29 28 -24 32 vhcurveto
          hintmask 1101111010000000
          22 callsubr
          hintmask 1101111100000000
          -88 callsubr
          -32 callsubr
          hvcurveto
          -32 callgsubr
        </CharString>
        <CharString name="degree">
          -382 558 166 hstem
          50 166 vstem
          50 642 rmoveto
          -48 37 -36 46 47 36 36 48 46 -36 36 -47 -46 -37 -36 -46 vhcurveto
          52 30 rmoveto
          9 8 10 4 13 hhcurveto
          12 12 -4 -9 8 hvcurveto
          7 -8 5 -11 -12 vvcurveto
          -12 -5 -11 -7 -8 vhcurveto
          -8 -8 -12 -5 -12 hhcurveto
          -13 -10 5 8 -8 hvcurveto
          -8 8 -5 11 12 vvcurveto
          12 5 11 8 8 vhcurveto
          endchar
        </CharString>
        <CharString name="dieresis">
          -319 633 94 hstem
          61 67 callgsubr
          119 633 -18 callsubr
        </CharString>
        <CharString name="divide">
          -111 95 -21 180 57 179 -20 hstem
          239 59 vstem
          298 399 rmoveto
          91 -59 -91 vlineto
          59 -325 rmoveto
          90 -59 -90 vlineto
          231 180 rmoveto
          57 -403 -57 vlineto
          endchar
        </CharString>
        <CharString name="dollar">
          -29 -82 -21 97 62 596 62 101 -20 hstem
          64 72 161 29 179 74 vstem
          544 633 rmoveto
          -56 49 -70 30 -87 3 rrcurveto
          100 -37 -101 vlineto
          -136 -7 -94 -71 -125 vvcurveto
          -115 79 -36 148 -34 vhcurveto
          6 -2 rlineto
          -267 vlineto
          -96 7 -82 40 -46 50 -35 -57 rcurveline
          72 -62 86 -35 98 -5 rrcurveto
          -98 37 97 vlineto
          145 2 103 61 129 vvcurveto
          127 -95 39 -151 33 vhcurveto
          -3 -2 1 -2 hhcurveto
          267 vlineto
          80 -3 65 -30 39 -43 rrcurveto
          -5 -398 rmoveto
          -82 -67 -41 -112 vhcurveto
          262 vlineto
          118 -29 61 -31 -79 vvcurveto
          -369 342 rmoveto
          76 49 50 112 5 vhcurveto
          -259 vlineto
          -112 26 -49 26 76 vvcurveto
          endchar
        </CharString>
        <CharString name="dotaccent">
          -486 633 97 hstem
          50 62 vstem
          112 633 -27 callsubr
        </CharString>
        <CharString name="dotbelow">
          -486 -166 98 hstem
          50 62 vstem
          112 2 callsubr
          endchar
        </CharString>
        <CharString name="dotlessi">
          21 -21 521 -20 8 callgsubr
          endchar
        </CharString>
        <CharString name="dotlessj">
          -181 61 641 -28 callgsubr
          endchar
        </CharString>
        <CharString name="e">
          -73 callsubr
          -88 callgsubr
          endchar
        </CharString>
        <CharString name="eacute">
          -34 callsubr
          389 730 -99 callsubr
          -3 -630 -107 callgsubr
          endchar
        </CharString>
        <CharString name="ebreve">
          -73 callsubr
          99 15 callgsubr
          39 70 90 196 hintmask 11110110
          -104 callgsubr
          -195 376 rmoveto
          hintmask 11101110
          -92 callsubr
          hintmask 11110110
          -51 callsubr
        </CharString>
        <CharString name="ecaron">
          -34 callsubr
          174 710 -95 callgsubr
          88 -740 -107 callgsubr
          endchar
        </CharString>
        <CharString name="ecircumflex">
          -34 callsubr
          212 624 -100 callgsubr
          126 -655 -107 callgsubr
          endchar
        </CharString>
        <CharString name="edblgrave">
          -34 callsubr
          356 620 -94 callsubr
          153 -740 -107 callgsubr
          endchar
        </CharString>
        <CharString name="edieresis">
          -73 callsubr
          103 94 hstem
          39 70 84 67 callgsubr
          251 633 -91 callgsubr
          -42 -643 -107 callgsubr
          endchar
        </CharString>
        <CharString name="edotaccent">
          -73 callsubr
          103 97 hstem
          39 70 157 62 -101 callsubr
          -164 345 -27 callsubr
        </CharString>
        <CharString name="edotbelow">
          -61 -166 98 58 52 194 52 189 53 hstem
          39 70 162 62 -101 callsubr
          -159 -454 -50 callgsubr
          endchar
        </CharString>
        <CharString name="egrave">
          -61 -10 52 194 52 189 53 200 -20 -88 callgsubr
          -201 332 -76 callsubr
        </CharString>
        <CharString name="eight">
          -80 callgsubr
        </CharString>
        <CharString name="eight.denominator">
          -250 -5 44 155 37 126 42 hstemhm
          38 -61 callsubr
          hintmask 1111000010000000
          359 111 13 callsubr
          -38 -64 -41 36 -28 40 -14 vhcurveto
          hintmask 1111000010000000
          -89 callsubr
          hintmask 1110011000000000
          -74 callsubr
          endchar
        </CharString>
        <CharString name="eight.lnum">
          -80 callgsubr
        </CharString>
        <CharString name="eight.numerator">
          -250 326 44 155 37 125 43 hstemhm
          38 -61 callsubr
          hintmask 1111000010000000
          359 442 -71 callgsubr
        </CharString>
        <CharString name="eightinferior">
          -250 -85 44 155 37 126 42 hstemhm
          38 -61 callsubr
          hintmask 1111000010000000
          359 31 13 callsubr
          -38 -64 -41 36 -28 40 -14 vhcurveto
          hintmask 1111000010000000
          -89 callsubr
          hintmask 1110011000000000
          -74 callsubr
          endchar
        </CharString>
        <CharString name="eightsuperior">
          -250 406 44 155 37 125 43 hstemhm
          38 -61 callsubr
          hintmask 1111000010000000
          359 522 -71 callgsubr
        </CharString>
        <CharString name="einvertedbreve">
          -73 callsubr
          99 42 callsubr
          39 70 92 196 hintmask 11101110
          299 695 rmoveto
          hintmask 11110110
          -93 callgsubr
          hintmask 11101110
          -22 callsubr
          1 -705 -107 callgsubr
          endchar
        </CharString>
        <CharString name="ellipsis">
          -191 0 98 hstem
          65 59 76 57 77 58 vstem
          124 hmoveto
          98 -59 -98 vlineto
          192 hmoveto
          98 -57 -98 vlineto
          192 hmoveto
          98 -58 -98 vlineto
          endchar
        </CharString>
        <CharString name="emacron">
          -73 callsubr
          133 47 -88 callgsubr
          -51 375 -40 callsubr
        </CharString>
        <CharString name="emdash">
          253 241 63 hstem
          836 241 rmoveto
          63 -771 -63 vlineto
          endchar
        </CharString>
        <CharString name="emspace">
          268 endchar
        </CharString>
        <CharString name="endash">
          25 callgsubr
        </CharString>
        <CharString name="eng">
          -65 31 callgsubr
          468 62 -9 30 callsubr
          hintmask 11101100
          360 -181 rmoveto
          78 50 callgsubr
          328 vlineto
          -66 callsubr
          hintmask 11011100
          -53 callsubr
          hintmask 11101100
          86 25 85 63 80 hhcurveto
          76 36 -54 -123 hvcurveto
          -318 -4 callgsubr
          -27 5 19 -21 vhcurveto
          -33 -46 rlineto
          -28 30 40 -11 44 hhcurveto
          endchar
        </CharString>
        <CharString name="enspace">
          -69 endchar
        </CharString>
        <CharString name="eogonek">
          -61 -160 -21 172 51 194 52 189 53 hstem
          39 70 107 42 vstem
          291 -181 rmoveto
          0 callgsubr
          85 11 71 49 28 67 -59 16 rcurveline
          -56 -25 -67 -38 -68 hhcurveto
          -100 -84 82 112 -9 hvcurveto
          446 hlineto
          1 4 0 13 10 vvcurveto
          143 -105 124 -153 -150 -110 -122 -146 -144 103 22 callgsubr
          -182 469 rmoveto
          110 7 82 79 102 hhcurveto
          102 81 -78 -111 9 hvcurveto
          endchar
        </CharString>
        <CharString name="equal">
          -210 194 49 66 49 hstem
          370 194 rmoveto
          49 -302 -49 vlineto
          302 115 rmoveto
          49 -302 -49 vlineto
          endchar
        </CharString>
        <CharString name="estimated">
          -45 -10 32 233 34 210 32 hstem
          43 97 335 95 vstem
          306 22 rmoveto
          -66 -60 32 51 -40 hvcurveto
          150 430 vlineto
          152 -108 124 -156 -155 -108 -125 -146 -145 106 -125 157 100 68 36 47 47 vhcurveto
          -22 24 rlineto
          -41 -38 -63 -34 -92 hhcurveto
          477 vmoveto
          67 61 -33 -53 41 hvcurveto
          -124 -335 125 vlineto
          52 40 60 33 66 hhcurveto
          endchar
        </CharString>
        <CharString name="eth">
          -46 -10 60 367 57 256 -20 hstem
          42 69 379 69 vstem
          473 713 rmoveto
          -87 -55 -29 25 -33 24 -38 23 rlinecurve
          -96 hlineto
          58 -33 47 -32 38 -33 -106 -65 rcurveline
          22 -31 112 70 84 -82 32 -83 13 -84 rlinecurve
          69 -36 -78 48 -89 hhcurveto
          -135 -110 -110 -131 -135 115 -108 139 143 120 115 172 111 -32 131 -114 113 hvcurveto
          82 51 rlineto
          -384 -451 rmoveto
          102 85 83 105 104 85 -77 -99 -103 -85 -88 -107 -103 -84 81 101 vhcurveto
          endchar
        </CharString>
        <CharString name="etilde">
          -73 callsubr
          108 -40 callgsubr
          39 70 hintmask 11110110
          -104 callgsubr
          -133 350 -87 callsubr
          hintmask 11101010
          -94 callgsubr
          hintmask 11110110
          -49 callsubr
        </CharString>
        <CharString name="exclam">
          -396 0 112 605 -20 hstem
          92 68 vstem
          160 228 rmoveto
          489 -68 -489 vlineto
          68 -228 rmoveto
          112 -68 -112 vlineto
          endchar
        </CharString>
        <CharString name="exclamdown">
          -397 19 -21 605 112 hstem
          91 68 vstem
          91 487 rmoveto
          -489 68 489 vlineto
          -68 228 rmoveto
          -112 68 112 vlineto
          endchar
        </CharString>
        <CharString name="f">
          -318 21 -21 467 54 160 59 hstem
          100 68 vstem
          168 hmoveto
          467 144 54 -144 16 vlineto
          93 35 51 63 28 30 -9 -14 18 vhcurveto
          21 49 rlineto
          20 -28 -41 13 -41 hhcurveto
          -94 -59 -78 -127 hvcurveto
          -14 -72 -54 72 -467 vlineto
          endchar
        </CharString>
        <CharString name="f_f">
          -66 26 callsubr
          hintmask 11011100
          515 680 rmoveto
          41 18 -13 -9 13 hvcurveto
          20 49 rlineto
          8 -15 -27 25 -62 hhcurveto
          -62 -42 -26 -39 -28 hvcurveto
          13 -25 -40 13 -47 hhcurveto
          -107 -50 -85 -89 -2 hvcurveto
          -6 -72 -54 72 61 callgsubr
          162 61 callgsubr
          166 54 -166 16 vlineto
          68 32 75 85 vhcurveto
          -185 -159 rmoveto
          -162 7 hlineto
          hintmask 11101100
          55 1 24 59 77 hhcurveto
          23 35 -4 -16 22 hvcurveto
          -14 -25 -6 -41 -35 vvcurveto
          endchar
        </CharString>
        <CharString name="f_f_i">
          86 26 callsubr
          193 68 hintmask 11011110
          100 hmoveto
          68 467 162 -467 29 callsubr
          34 75 89 45 47 -17 -19 21 vhcurveto
          31 49 rlineto
          17 -25 -56 30 -70 hhcurveto
          -66 -46 -26 -39 -31 hvcurveto
          hintmask 11101110
          13 -25 -40 13 -47 hhcurveto
          -107 -52 -90 -84 hvcurveto
          -6 -72 -54 72 vlineto
          68 54 rmoveto
          7 vlineto
          52 25 62 77 23 35 -4 -16 22 vhcurveto
          -14 -25 -6 -41 -35 vvcurveto
          endchar
        </CharString>
        <CharString name="f_f_l">
          169 0 55 -40 -21 473 54 121 59 -21 21 -21 60 hstemhm
          100 68 166 68 221 68 hintmask 0111001110000000
          727 -6 rmoveto
          42 49 14 2 1 hvcurveto
          -13 56 rlineto
          hintmask 1010011110000000
          -2 -33 -11 -24 hhcurveto
          -39 -17 34 28 hvcurveto
          467 vlineto
          90 -60 66 -116 -67 -48 -24 -41 -29 vhcurveto
          hintmask 1010101110000000
          13 -26 -32 13 -48 hhcurveto
          -105 -60 -81 -93 hvcurveto
          -6 -72 -54 72 61 callgsubr
          166 61 callgsubr
          109 54 -109 9 vlineto
          78 31 72 84 77 29 -57 -52 vhcurveto
          -483 vlineto
          hintmask 0111001110000000
          -51 37 -43 67 vhcurveto
          -559 527 rmoveto
          8 vlineto
          54 34 59 75 23 27 -3 -16 22 vhcurveto
          -11 -23 -4 -40 -39 vvcurveto
          endchar
        </CharString>
        <CharString name="f_i">
          -144 21 -21 467 54 159 60 hstem
          100 68 193 68 vstem
          100 hmoveto
          29 callsubr
          35 75 85 49 45 -16 -20 22 vhcurveto
          31 49 rlineto
          17 -23 -55 30 -73 hhcurveto
          -128 -56 -108 -97 hvcurveto
          -14 -72 -54 72 vlineto
          endchar
        </CharString>
        <CharString name="f_l">
          -65 -6 61 -34 -21 467 54 159 60 hstemhm
          100 68 222 68 hintmask 10111100
          572 66 rmoveto
          -1 -33 -11 -25 hhcurveto
          -37 -18 34 28 hvcurveto
          467 vlineto
          90 -60 66 -118 -121 -59 -83 -117 vhcurveto
          -19 -72 -54 72 vlineto
          hintmask 01111100
          61 callgsubr
          110 54 -110 13 vlineto
          80 2 32 66 79 hhcurveto
          82 27 -58 -51 hvcurveto
          -483 vlineto
          hintmask 10111100
          -51 37 -43 64 46 47 14 2 1 vhcurveto
          endchar
        </CharString>
        <CharString name="five">
          -103 -149 61 339 61 196 63 hstem
          439 70 vstem
          277 312 rmoveto
          -59 -53 -22 -37 -34 hvcurveto
          49 37 callgsubr
          -7 -35 vhcurveto
          63 hlineto
          52 35 59 28 62 hhcurveto
          96 74 -68 -98 -102 -77 -71 -99 -77 -69 44 65 -37 hvcurveto
          -45 -34 rlineto
          -82 40 87 -54 100 hhcurveto
          136 111 94 141 133 -102 93 -130 hvcurveto
          endchar
        </CharString>
        <CharString name="five.denominator">
          -274 -5 -16 callgsubr
          254 -56 callgsubr
        </CharString>
        <CharString name="five.lnum">
          -92 -10 62 339 60 196 63 hstem
          445 69 vstem
          283 451 rmoveto
          -60 -52 -21 -38 -35 hvcurveto
          50 37 callgsubr
          -8 -34 vhcurveto
          64 hlineto
          51 35 59 29 62 hhcurveto
          95 75 -69 -98 -102 -77 -70 -99 -77 -70 43 66 -36 hvcurveto
          -46 -34 rlineto
          -83 41 86 -54 101 hhcurveto
          136 110 95 140 133 -102 93 -129 hvcurveto
          endchar
        </CharString>
        <CharString name="five.numerator">
          -274 326 -16 callgsubr
          585 -79 callsubr
          endchar
        </CharString>
        <CharString name="fiveeighths">
          218 -5 44 155 37 95 42 -11 42 150 36 101 44 hstemhm
          301 46 163 -61 callsubr
          hintmask 1110111100001000
          194 585 -79 callsubr
          -28 -589 -93 callsubr
          699 84 -19 callgsubr
          hintmask 1101111010010000
          -69 callgsubr
          hintmask 1110111100001000
          -89 callsubr
          hintmask 1101111001100000
          -74 callsubr
          endchar
        </CharString>
        <CharString name="fiveinferior">
          -274 -85 -16 callgsubr
          174 -56 callgsubr
        </CharString>
        <CharString name="fivesuperior">
          -274 406 -16 callgsubr
          665 -79 callsubr
          endchar
        </CharString>
        <CharString name="florin">
          -122 -181 61 526 54 221 59 hstem
          230 68 vstem
          144 -181 rmoveto
          78 76 64 92 hvcurveto
          431 143 54 -143 77 vlineto
          93 34 51 63 28 31 -9 -14 18 vhcurveto
          20 49 rlineto
          20 -28 -42 13 -39 hhcurveto
          -95 -58 -78 -127 hvcurveto
          -75 -73 -54 73 -433 vlineto
          -53 -47 -40 -46 -25 -28 5 19 -20 vhcurveto
          -34 -46 rlineto
          -28 30 41 -11 43 hhcurveto
          endchar
        </CharString>
        <CharString name="four">
          -102 -127 240 -62 62 458 -20 hstemhm
          363 61 hintmask 10110000
          424 -127 rmoveto
          hintmask 01110000
          178 88 62 -88 458 -46 vlineto
          -355 -460 rlineto
          -60 333 vlineto
          hintmask 10110000
          -178 vlineto
          7 591 rmoveto
          -351 -268 vlineto
          endchar
        </CharString>
        <CharString name="four.denominator">
          -264 21 -21 103 44 252 24 callgsubr
          hmoveto
          -64 callgsubr
          endchar
        </CharString>
        <CharString name="four.lnum">
          -79 21 -21 190 62 458 -20 hstem
          381 62 vstem
          443 hmoveto
          190 88 62 -88 458 -47 vlineto
          -370 -459 rlineto
          -61 349 -190 vlineto
          6 604 rmoveto
          -352 -282 vlineto
          endchar
        </CharString>
        <CharString name="four.numerator">
          -264 352 -21 103 43 253 24 callgsubr
          331 -8 callsubr
        </CharString>
        <CharString name="fourinferior">
          -264 -59 -21 103 44 252 24 callgsubr
          -80 rmoveto
          -64 callgsubr
          endchar
        </CharString>
        <CharString name="foursuperior">
          -264 432 -21 103 43 253 24 callgsubr
          411 -8 callsubr
        </CharString>
        <CharString name="fraction">
          -494 17 -21 718 -20 hstem
          -182 -4 -29 callgsubr
        </CharString>
        <CharString name="franc">
          -36 21 -21 134 54 141 58 261 62 hstem
          121 69 vstem
          190 hmoveto
          134 133 54 -133 141 335 58 -335 261 396 62 -465 -522 -92 -54 92 -134 vlineto
          endchar
        </CharString>
        <CharString name="g">
          -30 -24 callgsubr
          hstemhm
          40 69 366 68 hintmask 11011100
          284 -7 -90 callgsubr
          hintmask 11101100
          -92 callgsubr
          endchar
        </CharString>
        <CharString name="gacute">
          -31 -24 callgsubr
          229 -20 hstemhm
          39 69 366 68 hintmask 11011110
          397 730 -99 callsubr
          -28 -627 -90 callgsubr
          hintmask 11101110
          -92 callgsubr
          endchar
        </CharString>
        <CharString name="gbreve">
          -31 -24 callgsubr
          128 15 callgsubr
          39 69 119 196 51 68 hintmask 1101101110000000
          283 -7 -90 callgsubr
          hintmask 1110101110000000
          -92 callgsubr
          23 614 rmoveto
          hintmask 1110011110000000
          -92 callsubr
          hintmask 1110101110000000
          -51 callsubr
        </CharString>
        <CharString name="gcircumflex">
          -31 -24 callgsubr
          229 -20 hstemhm
          39 69 366 68 hintmask 11011110
          240 624 -100 callgsubr
          81 -652 -90 callgsubr
          hintmask 11101110
          -92 callgsubr
          endchar
        </CharString>
        <CharString name="gcommaaccent">
          -31 -223 54 0 162 0 57 60 callgsubr
          29 60 150 -20 hstemhm
          39 69 166 63 137 68 hintmask 0100111111000000
          299 740 rmoveto
          -25 -74 rlineto
          -76 63 76 -20 vlineto
          17 74 rlineto
          -51 -747 rmoveto
          75 76 42 66 40 hvcurveto
          -103 vlineto
          -112 -86 -55 -101 -78 -73 31 66 -41 vhcurveto
          -42 -33 rlineto
          hintmask 1010111111000000
          -72 46 68 -46 120 hhcurveto
          139 116 76 145 hvcurveto
          523 -61 -109 vlineto
          hintmask 0101001111000000
          67 -46 -65 51 -89 hhcurveto
          -143 -99 -126 -145 -137 101 -129 143 hvcurveto
          hintmask 1011001111000000
          19 57 rmoveto
          -108 -86 96 112 103 70 109 116 75 76 -55 -75 29 66 callsubr
          -64 -12 -79 -65 -81 hhcurveto
          endchar
        </CharString>
        <CharString name="gdotaccent">
          -31 -24 callgsubr
          132 97 hstemhm
          39 69 186 62 118 68 hintmask 11011111
          283 -7 -90 callgsubr
          hintmask 11101111
          -92 callgsubr
          54 583 -27 callsubr
        </CharString>
        <CharString name="germandbls">
          -97 -6 63 -36 -21 368 62 224 60 hstemhm
          75 65 117 204 -65 65 -18 70 hintmask 10111001
          238 -6 rmoveto
          165 5 110 73 135 vvcurveto
          97 -58 78 -99 21 vhcurveto
          hintmask 01111010
          58 14 47 66 71 vvcurveto
          94 -80 66 -106 -117 -83 -81 -118 vhcurveto
          -515 65 505 vlineto
          83 45 66 88 67 56 -39 -71 -67 -50 -47 -71 vhcurveto
          hintmask 10111100
          -18 -62 19 hlineto
          hintmask 10111001
          99 68 -63 -94 -103 -81 -49 -124 -2 hvcurveto
          endchar
        </CharString>
        <CharString name="grave">
          -426 3 callgsubr
          136 620 -76 callsubr
        </CharString>
        <CharString name="greater">
          -140 10 -21 539 -20 hstem
          474 276 rmoveto
          -419 252 rlineto
          -73 vlineto
          320 -196 -320 -195 rlineto
          -75 vlineto
          419 250 rlineto
          endchar
        </CharString>
        <CharString name="greaterequal">
          -198 61 57 424 -20 hstem
          388 61 rmoveto
          57 -323 -57 vlineto
          324 322 rmoveto
          -319 159 rlineto
          -66 vlineto
          220 -111 -220 -109 rlineto
          -68 vlineto
          319 157 rlineto
          endchar
        </CharString>
        <CharString name="guillemotleft">
          -75 -12 callgsubr
          220 -37 rmoveto
          249 -173 rlineto
          59 vlineto
          -193 134 193 136 rlineto
          59 vlineto
          -249 -178 rlineto
          endchar
        </CharString>
        <CharString name="guillemotright">
          -75 87 -21 388 -20 hstem
          532 276 rmoveto
          -248 -6 callgsubr
          248 173 rlineto
          -220 37 rmoveto
          -249 -6 callgsubr
          249 173 rlineto
          endchar
        </CharString>
        <CharString name="guilsinglleft">
          -296 -12 callgsubr
          endchar
        </CharString>
        <CharString name="guilsinglright">
          -296 87 -21 388 -20 hstem
          312 276 rmoveto
          -249 -6 callgsubr
          249 173 rlineto
          endchar
        </CharString>
        <CharString name="h">
          -13 callgsubr
          -13 callsubr
          33 callgsubr
          vstem
          513 305 -62 callgsubr
          endchar
        </CharString>
        <CharString name="hbar">
          -13 callgsubr
          87 46 67 -20 hstem
          33 callgsubr
          vstem
          513 305 rmoveto
          134 -46 91 -119 -85 -79 -49 -78 -41 vhcurveto
          214 123 46 -123 67 -68 -67 -61 -46 61 -617 68 319 vlineto
          85 24 81 64 77 hhcurveto
          78 42 -59 -118 58 callsubr
          endchar
        </CharString>
        <CharString name="hcircumflex">
          -13 callgsubr
          -13 callsubr
          33 callgsubr
          vstem
          256 623 rmoveto
          81 63 80 -63 37 21 -94 84 rlineto
          -47 hlineto
          -93 -84 rlineto
          293 -339 -62 callgsubr
          endchar
        </CharString>
        <CharString name="hdotbelow">
          -65 41 callsubr
          468 62 -13 callsubr
          75 68 123 62 117 68 vstem
          513 305 -62 callgsubr
          -185 2 callsubr
          endchar
        </CharString>
        <CharString name="hungarumlaut">
          -322 3 callgsubr
          164 730 -62 callsubr
          endchar
        </CharString>
        <CharString name="hyphen">
          -226 241 63 hstem
          357 241 rmoveto
          63 -292 -63 vlineto
          endchar
        </CharString>
        <CharString name="i">
          21 -2 callgsubr
          endchar
        </CharString>
        <CharString name="iacute">
          -42 callsubr
          75 68 vstem
          201 730 -99 callsubr
          28 -620 rmoveto
          -48 callsubr
          endchar
        </CharString>
        <CharString name="ibreve">
          -52 callgsubr
          128 15 callgsubr
          11 196 -132 68 hintmask 11100100
          143 hmoveto
          -48 callsubr
          34 664 rmoveto
          hintmask 11011000
          -92 callsubr
          hintmask 11101000
          -51 callsubr
        </CharString>
        <CharString name="icircumflex">
          -42 callsubr
          75 68 vstem
          24 624 -100 callgsubr
          157 -645 rmoveto
          -48 callsubr
          endchar
        </CharString>
        <CharString name="idblgrave">
          -42 callsubr
          75 68 vstem
          173 620 -94 callsubr
          179 -730 rmoveto
          -48 callsubr
          endchar
        </CharString>
        <CharString name="idieresis">
          -52 callgsubr
          132 94 hstem
          5 58 12 68 11 58 vstem
          63 633 -91 callgsubr
          -11 -633 rmoveto
          -48 callsubr
          endchar
        </CharString>
        <CharString name="idotbelow">
          -166 98 89 -2 callgsubr
          64 -796 -50 callgsubr
          endchar
        </CharString>
        <CharString name="igrave">
          21 -21 521 -20 229 -20 8 callgsubr
          28 620 -76 callsubr
        </CharString>
        <CharString name="iinvertedbreve">
          -52 callgsubr
          128 42 callsubr
          11 196 -132 68 hintmask 11011000
          109 695 rmoveto
          hintmask 11101000
          -93 callgsubr
          hintmask 11010100
          -22 callsubr
          34 -695 rmoveto
          -48 callsubr
          endchar
        </CharString>
        <CharString name="ij">
          -205 31 callgsubr
          521 -20 129 100 hstem
          75 68 157 -25 callsubr
          68 630 rmoveto
          100 -68 -100 vlineto
          140 -811 -96 callgsubr
          endchar
        </CharString>
        <CharString name="imacron">
          -52 callgsubr
          162 47 8 callgsubr
          179 663 -40 callsubr
        </CharString>
        <CharString name="infinity">
          43 186 55 220 56 hstem
          45 56 488 55 vstem
          202 517 rmoveto
          -89 -68 -74 -91 -91 75 -75 82 80 38 45 53 27 hvcurveto
          -53 29 38 -45 73 hhcurveto
          90 67 74 91 91 -60 75 -96 -77 -36 -48 -56 -30 hvcurveto
          56 -29 -37 48 -77 hhcurveto
          -276 vmoveto
          -48 -53 35 76 76 53 33 48 63 30 -51 -60 28 hvcurveto
          -59 -28 -31 -50 -62 hhcurveto
          286 hmoveto
          -60 -31 48 57 -27 hvcurveto
          62 26 28 53 64 hhcurveto
          49 52 -33 -76 -76 -52 -35 -49 hvcurveto
          endchar
        </CharString>
        <CharString name="integral">
          -348 -167 55 877 55 hstem
          140 40 -40 61 vstem
          140 -40 rmoveto
          -46 3 -25 -26 -35 hhcurveto
          -16 -23 6 8 -19 hvcurveto
          -16 -48 rlineto
          -12 27 40 -9 29 hhcurveto
          63 37 41 69 -4 hvcurveto
          -41 751 rlineto
          45 -2 23 26 35 hhcurveto
          15 26 -6 -8 18 hvcurveto
          17 48 rlineto
          12 -28 -41 9 -28 hhcurveto
          -64 -36 -48 -62 3 hvcurveto
          endchar
        </CharString>
        <CharString name="iogonek">
          -154 -21 196 -4 callsubr
          109 0 100 hstemhm
          19 42 14 68 hintmask 11101100
          94 -41 callgsubr
          521 -68 -521 19 vlineto
          -52 -47 callsubr
          49 805 rmoveto
          hintmask 11011100
          100 -68 -100 vlineto
          endchar
        </CharString>
        <CharString name="itilde">
          -52 callgsubr
          137 -40 callgsubr
          75 68 hintmask 11101100
          143 hmoveto
          -48 callsubr
          96 28 callsubr
          hintmask 11010100
          -94 callgsubr
          hintmask 11101100
          -49 callsubr
        </CharString>
        <CharString name="j">
          -423 -181 61 641 -20 129 100 hstem
          82 68 vstem
          -3 -181 -96 callgsubr
          endchar
        </CharString>
        <CharString name="j.alt">
          -192 -21 843 91 hstem
          75 68 vstem
          75 -213 rmoveto
          68 730 -68 hlineto
          113 vmoveto
          68 91 -68 hlineto
          endchar
        </CharString>
        <CharString name="jcircumflex">
          -181 61 641 -20 229 -28 callgsubr
          35 805 -49 callgsubr
        </CharString>
        <CharString name="k">
          -118 21 -21 730 -20 hstem
          75 68 vstem
          521 hmoveto
          -17 callgsubr
        </CharString>
        <CharString name="kcommaaccent">
          -118 -178 -21 220 -21 730 -20 hstem
          75 68 98 63 vstem
          279 -87 callgsubr
          277 199 rmoveto
          -17 callgsubr
        </CharString>
        <CharString name="kgreenlandic">
          -118 21 -21 520 -20 21 -20 hstemhm
          75 68 hintmask 11010000
          521 hmoveto
          -221 307 213 213 rlineto
          -77 hlineto
          -293 -286 rlineto
          hintmask 10110000
          287 -68 -521 68 163 vlineto
          112 104 192 -267 rlineto
          endchar
        </CharString>
        <CharString name="l">
          -376 59 callgsubr
          hstem
          78 68 vstem
          78 95 -82 callsubr
          612 -68 vlineto
          endchar
        </CharString>
        <CharString name="l.alt">
          -419 21 -21 730 -20 hstem
          81 68 vstem
          81 hmoveto
          68 730 -68 hlineto
          endchar
        </CharString>
        <CharString name="lacute">
          -376 59 callgsubr
          173 -20 hstem
          78 68 vstem
          197 883 -99 callsubr
          -33 -678 -82 callsubr
          612 -68 vlineto
          endchar
        </CharString>
        <CharString name="lcaron">
          -376 59 callgsubr
          hstem
          78 68 vstem
          323 730 -99 callsubr
          -159 -525 -82 callsubr
          612 -68 vlineto
          endchar
        </CharString>
        <CharString name="lcommaaccent">
          -376 5 callsubr
          43 0 62 674 -20 hstemhm
          78 68 -6 63 hintmask 11010100
          178 -87 callgsubr
          hintmask 10111000
          -65 294 -82 callsubr
          612 -68 vlineto
          endchar
        </CharString>
        <CharString name="ldot">
          -334 59 callgsubr
          hstem
          78 68 93 59 vstem
          78 95 -82 callsubr
          612 -68 vlineto
          220 -467 rmoveto
          112 -59 -112 vlineto
          endchar
        </CharString>
        <CharString name="less">
          -140 10 -21 539 -20 hstem
          33 239 rmoveto
          419 -250 rlineto
          75 vlineto
          -320 195 320 196 rlineto
          73 vlineto
          -419 -252 rlineto
          endchar
        </CharString>
        <CharString name="lessequal">
          -198 61 57 424 -20 hstem
          385 61 rmoveto
          57 -322 -57 vlineto
          -1 284 rmoveto
          318 -157 rlineto
          68 vlineto
          -219 109 219 111 rlineto
          66 vlineto
          -318 -159 rlineto
          endchar
        </CharString>
        <CharString name="lira">
          -160 -15 60 -36 54 184 42 61 43 265 57 hstemhm
          75 64 36 61 hintmask 01111110
          49 350 rmoveto
          104 hlineto
          9 -19 6 -20 4 -22 rrcurveto
          -110 -42 113 hlineto
          -2 -62 -33 -56 -89 -87 19 -50 rcurveline
          10 33 43 7 32 hhcurveto
          hintmask 10111110
          61 46 -24 59 hhcurveto
          37 38 9 17 35 hvcurveto
          hintmask 01111110
          -17 52 rlineto
          hintmask 10111110
          -12 -37 -26 -6 -27 hhcurveto
          hintmask 01111110
          -48 -38 18 -56 hhcurveto
          -24 -24 -3 -6 -25 hvcurveto
          73 77 28 54 3 62 rrcurveto
          155 42 -157 hlineto
          -3 22 -6 20 -7 19 rrcurveto
          167 43 -187 hlineto
          -27 51 -32 44 52 vvcurveto
          66 51 52 64 55 57 -35 -55 32 vhcurveto
          39 42 rlineto
          65 -40 -68 40 -73 hhcurveto
          -99 -82 -76 -95 -57 30 -45 27 -49 hvcurveto
          -83 hlineto
          endchar
        </CharString>
        <CharString name="logicalnot">
          -66 302 62 hstemhm
          452 60 vstemhm
          73 364 rmoveto
          -62 379 vlineto
          hintmask 11000000
          -176 60 238 vlineto
          endchar
        </CharString>
        <CharString name="lozenge">
          -142 21 -21 730 -20 hstem
          216 730 rmoveto
          -186 -364 186 -366 rlineto
          73 hlineto
          186 366 -186 364 rlineto
          -29 -677 rmoveto
          -160 322 151 301 160 -322 rlineto
          endchar
        </CharString>
        <CharString name="lslash">
          -356 59 callgsubr
          hstem
          97 68 vstem
          97 95 -82 callsubr
          275 vlineto
          113 89 -24 39 -89 -71 rlineto
          280 -68 -333 vlineto
          -87 -69 23 -39 64 50 rlineto
          endchar
        </CharString>
        <CharString name="m">
          271 13 callgsubr
          -9 -20 hstemhm
          75 68 285 68 286 68 hintmask 11011100
          850 305 rmoveto
          136 -42 89 -117 -85 -68 -46 -88 -48 vhcurveto
          79 -12 -55 55 -87 hhcurveto
          -84 -72 -47 -80 -43 hvcurveto
          hintmask 10111100
          -53 callsubr
          hintmask 11011100
          89 26 67 60 78 hhcurveto
          77 37 -54 -123 hvcurveto
          -291 68 318 vlineto
          88 25 67 62 79 hhcurveto
          76 39 -56 -121 58 callsubr
          endchar
        </CharString>
        <CharString name="macron">
          -252 663 47 hstem
          343 663 -40 callsubr
        </CharString>
        <CharString name="minus">
          -109 267 56 hstem
          471 267 rmoveto
          56 -403 -56 vlineto
          endchar
        </CharString>
        <CharString name="mu">
          -28 46 callsubr
          82 64 314 68 -68 92 hintmask 11011100
          82 19 callsubr
          -66 vlineto
          hintmask 10111010
          -27 -35 callsubr
        </CharString>
        <CharString name="multiply">
          -191 129 -21 329 -20 hstem
          272 272 rmoveto
          120 121 -43 44 -121 -121 -119 120 -44 -43 120 -121 -121 -120 43 -44 121 121 122 -121 44 43 rlineto
          endchar
        </CharString>
        <CharString name="n">
          -13 callgsubr
          -9 30 callsubr
          hintmask 11011000
          513 305 rmoveto
          -66 callsubr
          hintmask 10111000
          -53 callsubr
          hintmask 11011000
          -73 callgsubr
          endchar
        </CharString>
        <CharString name="nacute">
          -19 callsubr
          388 730 -99 callsubr
          211 -315 -68 callsubr
        </CharString>
        <CharString name="napostrophe">
          -19 callsubr
          129 52 callsubr
          471 -315 -68 callsubr
        </CharString>
        <CharString name="ncaron">
          -19 callsubr
          173 710 -95 callgsubr
          302 -425 -68 callsubr
        </CharString>
        <CharString name="ncommaaccent">
          -65 -178 -21 220 10 callgsubr
          -9 -20 hstemhm
          75 68 112 63 127 68 hintmask 11101110
          293 -87 callgsubr
          255 504 rmoveto
          -66 callsubr
          hintmask 11011110
          -53 callsubr
          hintmask 11101110
          -73 callgsubr
          endchar
        </CharString>
        <CharString name="ndotaccent">
          -13 callgsubr
          -9 -20 132 97 hstemhm
          75 68 122 62 118 68 hintmask 11011110
          327 633 rmoveto
          97 -62 -97 vlineto
          248 -328 rmoveto
          -66 callsubr
          hintmask 10111110
          -53 callsubr
          hintmask 11011110
          -73 callgsubr
          endchar
        </CharString>
        <CharString name="nine">
          -62 -154 60 181 56 368 60 hstem
          36 65 377 65 vstem
          36 327 rmoveto
          -134 108 -106 136 90 78 51 78 30 vhcurveto
          -196 -2 -77 -114 -118 hhcurveto
          -74 -66 44 68 -28 hvcurveto
          -44 -40 rlineto
          -82 39 80 -50 93 hhcurveto
          156 106 139 289 185 -106 112 -149 -141 -111 -109 -135 hvcurveto
          251 184 rmoveto
          101 84 -84 -100 -101 -83 -83 -102 -101 -85 83 101 101 85 83 101 hvcurveto
          endchar
        </CharString>
        <CharString name="nine.denominator">
          -243 -5 34 callsubr
          265 -56 callsubr
        </CharString>
        <CharString name="nine.lnum">
          -45 -10 61 180 56 369 59 hstem
          44 66 375 65 vstem
          44 471 rmoveto
          -133 108 -107 136 90 78 51 78 29 vhcurveto
          -196 -79 -113 -117 -75 -66 44 67 -28 vhcurveto
          -43 -39 rlineto
          -83 39 79 -50 93 hhcurveto
          157 105 139 290 185 -105 111 -150 -141 -110 -108 -136 hvcurveto
          250 185 rmoveto
          101 86 -85 -100 -100 -85 -84 -101 -101 -84 84 101 100 83 84 101 hvcurveto
          endchar
        </CharString>
        <CharString name="nine.numerator">
          -245 322 35 callgsubr
          592 -58 callgsubr
        </CharString>
        <CharString name="nineinferior">
          -243 -85 34 callsubr
          185 -56 callsubr
        </CharString>
        <CharString name="ninesuperior">
          -245 402 35 callgsubr
          672 -58 callgsubr
        </CharString>
        <CharString name="notequal">
          -181 99 -21 116 49 66 49 116 -20 hstem
          83 309 rmoveto
          147 hlineto
          -38 -66 rlineto
          -109 -49 82 hlineto
          -57 -101 34 -15 65 116 rlineto
          177 49 -149 hlineto
          38 66 rlineto
          111 49 -84 hlineto
          57 100 -34 16 -66 -116 rlineto
          -174 hlineto
          endchar
        </CharString>
        <CharString name="ntilde">
          -13 callgsubr
          -9 -20 137 43 -3 45 7 30 callsubr
          hintmask 11010111
          513 305 rmoveto
          -66 callsubr
          hintmask 10110111
          -53 callsubr
          hintmask 11010111
          -73 callgsubr
          -155 28 callsubr
          hintmask 11001011
          -94 callgsubr
          hintmask 11010111
          -49 callsubr
        </CharString>
        <CharString name="numbersign">
          32 21 -21 207 54 196 51 202 -20 hstem
          642 508 rmoveto
          -116 53 callgsubr
          -189 53 callgsubr
          -143 -51 130 hlineto
          -47 -196 rlineto
          -126 -54 113 51 callgsubr
          189 51 callgsubr
          147 54 -134 hlineto
          47 196 rlineto
          129 hlineto
          -422 -196 rmoveto
          47 196 rlineto
          189 hlineto
          -47 -196 rlineto
          endchar
        </CharString>
        <CharString name="o">
          -53 -44 callsubr
          57 callgsubr
          -76 callgsubr
          endchar
        </CharString>
        <CharString name="oacute">
          -53 -53 callgsubr
          379 69 vstem
          389 730 -99 callsubr
          -6 -630 -106 callsubr
          endchar
        </CharString>
        <CharString name="obreve">
          -53 -44 callsubr
          99 15 callgsubr
          39 69 91 196 92 69 hintmask 11101110
          -76 callgsubr
          189 406 rmoveto
          hintmask 11011110
          -92 callsubr
          hintmask 11101110
          -51 callsubr
        </CharString>
        <CharString name="ocircumflex">
          -53 -53 callgsubr
          379 69 vstem
          212 624 -100 callgsubr
          123 -655 -106 callsubr
          endchar
        </CharString>
        <CharString name="odblgrave">
          -53 -53 callgsubr
          379 69 vstem
          354 620 -94 callsubr
          152 -740 -106 callsubr
          endchar
        </CharString>
        <CharString name="odieresis">
          -53 -44 callsubr
          103 94 hstem
          39 69 86 58 91 58 86 69 vstem
          252 633 -91 callgsubr
          -46 -643 -106 callsubr
          endchar
        </CharString>
        <CharString name="odotbelow">
          -53 -166 98 58 -33 callsubr
          hstem
          39 69 158 62 159 69 vstem
          328 2 callsubr
          31 156 -106 callsubr
          endchar
        </CharString>
        <CharString name="oe">
          386 -10 52 194 46 188 60 hstem
          39 69 379 70 381 66 vstem
          296 -10 rmoveto
          99 83 62 101 44 hvcurveto
          -98 44 89 -65 100 hhcurveto
          97 91 53 77 34 hvcurveto
          -58 16 rlineto
          -56 -22 -67 -38 -72 hhcurveto
          -104 -87 85 109 -9 hvcurveto
          446 hlineto
          176 -106 118 -152 -106 -83 -61 -104 -37 vhcurveto
          101 -36 -85 64 -101 hhcurveto
          -146 -113 -119 -153 -150 112 -118 145 hvcurveto
          1 60 rmoveto
          -105 -84 90 117 118 85 95 105 105 84 -93 -118 -117 -84 -92 -106 hvcurveto
          260 232 rmoveto
          113 6 79 82 103 hhcurveto
          102 84 -81 -114 7 hvcurveto
          endchar
        </CharString>
        <CharString name="ogonek">
          -408 -154 -21 192 -20 hstem
          55 42 vstem
          130 -41 callgsubr
          -22 17 rlineto
          -71 -43 -31 -38 -38 vvcurveto
          -35 26 -28 49 -10 vhcurveto
          endchar
        </CharString>
        <CharString name="ograve">
          -53 -53 callgsubr
          379 69 vstem
          -76 callgsubr
          184 362 -76 callsubr
        </CharString>
        <CharString name="ohungarumlaut">
          -53 -53 callgsubr
          379 69 vstem
          318 730 -62 callsubr
          -63 -630 -106 callsubr
          endchar
        </CharString>
        <CharString name="oinvertedbreve">
          -53 -44 callsubr
          99 42 callsubr
          39 69 90 196 93 69 hintmask 11011110
          296 695 rmoveto
          hintmask 11101110
          -93 callgsubr
          hintmask 11011110
          -22 callsubr
          1 -705 -106 callsubr
          endchar
        </CharString>
        <CharString name="omacron">
          -53 -44 callsubr
          133 47 57 callgsubr
          442 663 rmoveto
          47 -289 -47 vlineto
          144 -673 -106 callsubr
          endchar
        </CharString>
        <CharString name="one">
          -220 0 62 348 66 95 -20 hstemhm
          46 233 -70 70 hintmask 11101000
          279 62 rmoveto
          509 -70 vlineto
          hintmask 11110000
          -12 -6 -95 -83 -62 hhcurveto
          -66 vlineto
          52 89 49 31 22 hvcurveto
          -428 -142 -62 339 62 vlineto
          endchar
        </CharString>
        <CharString name="one.denominator">
          -361 0 54 callsubr
          44 -3 callgsubr
        </CharString>
        <CharString name="one.lnum">
          -232 0 62 495 64 98 -20 hstemhm
          42 227 -69 69 hintmask 11101000
          269 62 rmoveto
          657 -69 vlineto
          hintmask 11110000
          -4 -2 -86 -94 -70 hhcurveto
          -64 vlineto
          54 82 55 31 22 hvcurveto
          -581 -135 -62 331 62 vlineto
          endchar
        </CharString>
        <CharString name="one.numerator">
          -376 326 45 360 -20 hstem
          130 45 vstem
          175 371 -3 callsubr
        </CharString>
        <CharString name="oneeighth">
          210 -5 44 155 37 95 45 -14 42 332 -20 hstemhm
          141 45 315 -61 callsubr
          hintmask 1110111000010000
          148 -4 -93 callsubr
          72 344 -77 callgsubr
          561 -260 -19 callgsubr
          hintmask 1101110100100000
          -69 callgsubr
          hintmask 1110111000010000
          -89 callsubr
          hintmask 1101110011000000
          -74 callsubr
          endchar
        </CharString>
        <CharString name="onehalf">
          216 0 44 -27 -21 330 45 -10 43 327 -20 hstemhm
          141 45 586 49 hintmask 10011110
          822 hmoveto
          44 -248 vlineto
          36 23 48 88 30 vhcurveto
          53 18 83 26 83 vvcurveto
          68 -48 51 -94 -96 -52 -53 -14 -11 vhcurveto
          29 -32 rlineto
          22 20 39 34 65 hhcurveto
          66 33 -34 -41 -62 -74 -17 -59 -23 hvcurveto
          -83 -33 -40 -48 -103 vvcurveto
          hintmask 01101110
          -383 -4 -93 callsubr
          87 344 -3 callsubr
        </CharString>
        <CharString name="oneinferior">
          -361 -80 54 callsubr
          -36 -3 callgsubr
        </CharString>
        <CharString name="onequarter">
          177 17 -21 25 -21 103 44 179 45 360 -20 hstemhm
          140 45 503 44 hintmask 01111110
          732 hmoveto
          -64 callgsubr
          hintmask 10111110
          -340 -151 -93 callsubr
          52 344 -3 callsubr
        </CharString>
        <CharString name="onesuperior">
          -376 406 45 260 -20 120 -20 hstem
          130 45 vstem
          175 451 -3 callsubr
        </CharString>
        <CharString name="onethird">
          211 -5 44 146 40 101 45 -8 41 327 -20 hstemhm
          143 45 576 59 -45 45 hintmask 11101110
          136 -4 -93 callsubr
          86 344 -77 callgsubr
          399 -376 -65 callsubr
        </CharString>
        <CharString name="oogonek">
          -53 -160 -21 172 59 420 60 hstem
          39 69 105 42 232 69 vstem
          288 -181 rmoveto
          0 callgsubr
          130 18 91 115 133 vvcurveto
          146 -109 125 -150 -149 -109 -125 -146 -141 100 22 callgsubr
          -180 439 rmoveto
          117 86 95 103 104 86 -94 -116 -116 -86 -94 -104 -104 -85 92 116 vhcurveto
          endchar
        </CharString>
        <CharString name="ordfeminine">
          -214 346 45 137 37 103 42 hstem
          48 56 194 60 vstem
          166 346 rmoveto
          56 52 23 42 33 hvcurveto
          1 -25 2 -20 15 -15 24 -1 rlinecurve
          9 7 1 1 12 hvcurveto
          52 vlineto
          -14 1 -5 7 14 vvcurveto
          143 vlineto
          90 -57 51 -93 -47 -45 -15 -31 -47 vhcurveto
          20 -37 rlineto
          27 40 37 14 37 hhcurveto
          60 35 -36 -57 hvcurveto
          -28 vlineto
          12 -27 -38 6 -36 hhcurveto
          -87 -62 -45 -64 -62 52 -48 66 hvcurveto
          16 45 rmoveto
          -44 -34 30 39 41 41 27 61 32 33 -4 -12 27 hvcurveto
          -52 vlineto
          -8 -4 -10 -8 -8 vhcurveto
          -26 -20 -41 -17 -43 hhcurveto
          endchar
        </CharString>
        <CharString name="ordmasculine">
          -199 346 49 266 49 hstem
          44 57 246 58 vstem
          224 346 rmoveto
          107 74 85 97 47 callsubr
          hvcurveto
          7 callsubr
        </CharString>
        <CharString name="oslash">
          65 callgsubr
          hstemhm
          60 callsubr
          hintmask 01101100
          139 -1 rmoveto
          22 29 rlineto
          hintmask 10011100
          -1 callgsubr
          hintmask 10101100
          18 callgsubr
          hintmask 01101100
          -39 -51 rlineto
          hintmask 10101100
          -45 callsubr
          endchar
        </CharString>
        <CharString name="oslashacute">
          65 callgsubr
          227 -20 hstemhm
          60 callsubr
          hintmask 01101110
          139 -1 rmoveto
          22 29 rlineto
          hintmask 10011110
          -1 callgsubr
          hintmask 10101110
          18 callgsubr
          hintmask 01101110
          -39 -51 rlineto
          hintmask 10101110
          -45 callsubr
          281 472 -23 callgsubr
        </CharString>
        <CharString name="otilde">
          -53 -44 callsubr
          108 -40 callgsubr
          60 callsubr
          hintmask 11101110
          -76 callgsubr
          252 380 -87 callsubr
          hintmask 11010110
          -94 callgsubr
          hintmask 11101110
          -49 callsubr
        </CharString>
        <CharString name="p">
          -31 47 callgsubr
          75 68 365 69 hintmask 11101100
          341 -61 callgsubr
        </CharString>
        <CharString name="paragraph">
          -46 -59 -21 311 54 371 54 hstem
          34 59 201 59 74 60 vstem
          34 469 rmoveto
          -146 100 -90 160 -2 vhcurveto
          -311 59 311 74 -311 60 736 70 54 -241 vlineto
          -178 -104 -90 -151 hvcurveto
          59 2 rmoveto
          113 71 71 130 1 vhcurveto
          -371 vlineto
          -109 6 -92 56 124 vvcurveto
          334 -186 rmoveto
          -74 371 74 hlineto
          endchar
        </CharString>
        <CharString name="parenleft">
          -379 -16 -21 776 -20 hstem
          44 64 vstem
          44 346 rmoveto
          -127 56 -131 84 -125 vhcurveto
          51 27 rlineto
          -79 120 -48 129 104 vvcurveto
          128 74 162 54 81 vhcurveto
          -52 25 rlineto
          -78 -130 -62 -127 -136 vvcurveto
          endchar
        </CharString>
        <CharString name="parenright">
          -380 -16 -21 776 -20 hstem
          161 63 vstem
          224 346 rmoveto
          136 -62 127 -77 130 vhcurveto
          -53 -25 rlineto
          55 -81 74 -162 -128 vvcurveto
          -104 -49 -129 -78 -120 vhcurveto
          50 -27 rlineto
          85 125 55 131 127 vvcurveto
          endchar
        </CharString>
        <CharString name="partialdiff">
          -82 -10 60 328 56 221 60 hstemhm
          28 65 335 87 -64 64 hintmask 11110100
          247 -10 rmoveto
          159 109 140 269 224 -75 92 -145 -78 -74 -26 -51 -44 hvcurveto
          39 -41 rlineto
          34 28 62 24 61 hhcurveto
          99 63 -60 -177 -30 -2 -42 -5 -30 hvcurveto
          74 -20 -68 44 -82 hhcurveto
          -133 -113 -113 -126 -114 91 -91 128 hvcurveto
          1 60 rmoveto
          -89 -66 66 84 96 86 82 96 hvcurveto
          hintmask 11111000
          86 67 -67 -81 -87 -75 -93 -105 hvcurveto
          endchar
        </CharString>
        <CharString name="percent">
          66 45 callsubr
          40 51 197 51 37 51 196 52 vstem
          190 14 callgsubr
          -54 -45 -47 callgsubr
          -426 -34 -29 callgsubr
        </CharString>
        <CharString name="period">
          -459 21 -21 98 -20 hstem
          65 59 vstem
          124 hmoveto
          98 -59 -98 vlineto
          endchar
        </CharString>
        <CharString name="periodcentered">
          6 callsubr
        </CharString>
        <CharString name="perthousand">
          418 45 callsubr
          46 51 197 51 37 51 196 52 53 51 197 51 vstem
          196 14 callgsubr
          -53 -46 -47 callgsubr
          352 -40 rmoveto
          83 67 64 80 79 -67 64 -83 -82 -67 -64 -79 -80 67 -64 82 hvcurveto
          40 vmoveto
          -53 -45 46 58 55 44 49 54 53 46 -47 -57 -56 -44 -48 -55 hvcurveto
          -778 -34 -29 callgsubr
        </CharString>
        <CharString name="pi">
          -59 -6 62 -35 -21 459 62 hstemhm
          105 66 200 66 hintmask 10111000
          371 459 rmoveto
          -364 vlineto
          -63 39 -38 60 27 41 8 10 26 vhcurveto
          -12 55 rlineto
          -7 -17 -22 -4 -15 hhcurveto
          -38 -23 23 39 hvcurveto
          341 110 62 -522 -62 80 vlineto
          hintmask 01111000
          -459 66 459 vlineto
          endchar
        </CharString>
        <CharString name="plus">
          -233 213 -21 135 56 135 -20 hstem
          176 63 vstem
          239 383 rmoveto
          135 -63 -135 -124 -56 124 -135 63 135 124 56 vlineto
          endchar
        </CharString>
        <CharString name="plusminus">
          -181 61 57 218 57 140 -20 hstem
          202 63 vstem
          395 61 rmoveto
          57 -323 -57 vlineto
          193 332 rmoveto
          140 -63 -140 -130 -57 130 -140 63 140 130 57 vlineto
          endchar
        </CharString>
        <CharString name="product">
          43 -69 -21 738 62 hstem
          113 66 334 66 vstem
          513 -90 rmoveto
          66 738 80 62 -628 -62 82 -738 66 738 334 hlineto
          endchar
        </CharString>
        <CharString name="q">
          -31 -191 -21 202 7 callgsubr
          -259 vlineto
          -32 25 -27 30 -2 vhcurveto
          12 13 0 2 13 hvcurveto
          59 vlineto
          -18 1 -7 9 19 vvcurveto
          643 -48 callgsubr
        </CharString>
        <CharString name="q.alt">
          -31 -192 -21 203 7 callgsubr
          -321 68 734 -48 callgsubr
        </CharString>
        <CharString name="question">
          -172 21 -21 662 57 hstem
          154 58 166 60 vstem
          212 202 rmoveto
          96 44 26 47 26 vhcurveto
          68 37 67 35 106 vvcurveto
          129 -97 62 -98 -87 -85 -47 -82 -37 vhcurveto
          47 -30 rlineto
          57 29 61 45 71 hhcurveto
          69 67 -43 -87 -98 -86 -30 -53 -32 hvcurveto
          -58 -35 -27 -47 -88 vvcurveto
          60 -202 rmoveto
          107 -59 -107 vlineto
          endchar
        </CharString>
        <CharString name="questiondown">
          -179 -213 57 662 -20 hstem
          34 60 166 58 vstem
          260 304 rmoveto
          -96 -44 -26 -47 -26 vhcurveto
          -68 -37 -67 -35 -106 vvcurveto
          -129 97 -62 98 87 85 47 82 37 vhcurveto
          -47 30 rlineto
          -57 -29 -61 -45 -71 hhcurveto
          -69 -67 43 87 98 86 30 53 32 hvcurveto
          58 35 27 47 88 vvcurveto
          -60 202 rmoveto
          -107 59 107 vlineto
          endchar
        </CharString>
        <CharString name="quotedbl">
          -356 522 194 hstem
          69 59 36 59 vstem
          128 522 rmoveto
          194 -59 -194 vlineto
          154 hmoveto
          194 -59 -194 vlineto
          endchar
        </CharString>
        <CharString name="quotedblbase">
          -305 -104 206 -81 -21 hstemhm
          80 66 52 66 hintmask 10110000
          121 -104 rmoveto
          17 callsubr
          153 hmoveto
          17 callsubr
          endchar
        </CharString>
        <CharString name="quotedblleft">
          -332 521 209 hstem
          64 67 54 67 vstem
          89 730 rmoveto
          20 callsubr
          86 hmoveto
          20 callsubr
          endchar
        </CharString>
        <CharString name="quotedblright">
          -337 521 209 hstem
          64 67 54 67 vstem
          106 521 rmoveto
          21 callgsubr
          156 hmoveto
          21 callgsubr
          endchar
        </CharString>
        <CharString name="quoteleft">
          -452 542 -21 209 -20 hstem
          64 67 vstem
          89 730 rmoveto
          20 callsubr
          endchar
        </CharString>
        <CharString name="quoteright">
          -458 542 -21 209 -20 hstem
          64 67 vstem
          106 521 rmoveto
          21 callgsubr
          endchar
        </CharString>
        <CharString name="quotesinglbase">
          -423 -83 -21 125 -21 102 -20 hstem
          80 66 vstem
          121 -104 rmoveto
          25 104 rlineto
          102 -66 -102 23 vlineto
          -17 -104 rlineto
          endchar
        </CharString>
        <CharString name="quotesingle">
          -451 542 -21 195 -20 hstem
          69 59 vstem
          128 521 rmoveto
          195 -59 -195 vlineto
          endchar
        </CharString>
        <CharString name="r">
          -297 21 31 callsubr
          hstemhm
          75 68 hintmask 11010000
          335 523 -57 callgsubr
          hintmask 10110000
          -33 callgsubr
          hintmask 11010000
          2 callgsubr
        </CharString>
        <CharString name="racute">
          -11 callgsubr
          293 730 -99 callsubr
          128 -97 -55 callgsubr
        </CharString>
        <CharString name="radical">
          -201 21 -21 790 -20 hstem
          11 314 rmoveto
          83 hlineto
          89 -314 rlineto
          75 hlineto
          148 790 rlineto
          -66 hlineto
          -118 -728 -71 303 rlineto
          -140 hlineto
          endchar
        </CharString>
        <CharString name="rcaron">
          -11 callgsubr
          78 710 -95 callgsubr
          219 -207 -55 callgsubr
        </CharString>
        <CharString name="rcommaaccent">
          -297 5 callsubr
          49 61 callsubr
          111 -87 callgsubr
          259 722 -57 callgsubr
          hintmask 11011000
          -33 callgsubr
          hintmask 11101000
          2 callgsubr
        </CharString>
        <CharString name="rdblgrave">
          -11 callgsubr
          265 620 -94 callsubr
          279 -207 -55 callgsubr
        </CharString>
        <CharString name="rdotbelow">
          -297 -166 98 89 -21 61 callsubr
          335 523 -57 callgsubr
          hintmask 11011000
          -33 callgsubr
          hintmask 11101000
          -10 callsubr
          -195 -627 -50 callgsubr
          endchar
        </CharString>
        <CharString name="registered">
          184 -7 32 102 214 -46 46 191 48 102 33 hstemhm
          48 36 179 53 221 52 159 36 hintmask 1101111110000000
          416 -7 rmoveto
          211 45 callgsubr
          -211 -212 44 callsubr
          212 hvcurveto
          32 vmoveto
          -192 -140 142 188 186 140 141 192 191 141 -141 -187 -196 -145 -133 -187 hvcurveto
          -153 102 rmoveto
          53 hlineto
          hintmask 1011111110000000
          168 117 vlineto
          hintmask 1101111110000000
          106 -168 rlineto
          58 hlineto
          -111 175 rlineto
          61 12 42 58 65 vvcurveto
          70 -57 73 -78 vhcurveto
          -191 hlineto
          53 -239 rmoveto
          191 134 vlineto
          50 37 -40 -55 -54 -29 -42 -54 hvcurveto
          endchar
        </CharString>
        <CharString name="ring">
          -400 599 27 77 27 hstem
          50 34 81 33 vstem
          50 665 -85 callsubr
          endchar
        </CharString>
        <CharString name="rinvertedbreve">
          -297 21 31 callsubr
          128 42 callsubr
          75 68 -40 196 hintmask 11001100
          201 695 rmoveto
          hintmask 11010010
          -93 callgsubr
          hintmask 11001100
          -22 callsubr
          134 -172 -57 callgsubr
          hintmask 10110100
          -33 callgsubr
          hintmask 11010100
          2 callgsubr
        </CharString>
        <CharString name="s">
          -161 -10 52 437 51 hstem
          53 65 267 66 vstem
          248 -10 -102 callgsubr
          endchar
        </CharString>
        <CharString name="s_t">
          163 -10 52 -52 67 -42 -21 473 54 -42 42 9 -20 200 37 hstemhm
          47 62 221 36 23 63 122 68 hintmask 0101001111100000
          783 80 rmoveto
          -5 -9 -34 -18 -35 hhcurveto
          -34 -29 18 38 hvcurveto
          354 118 54 -118 vlineto
          150 -8 76 -141 -121 -42 -63 -74 -47 16 -26 17 -38 vhcurveto
          hintmask 1000011111100000
          21 -33 -48 10 -43 hhcurveto
          -92 -100 -44 -113 -102 85 -23 102 -15 hvcurveto
          62 -9 93 -5 -80 vvcurveto
          -72 -74 -25 -65 -64 -63 24 47 -58 vhcurveto
          -30 -47 rlineto
          -42 50 80 -34 85 hhcurveto
          99 103 44 111 108 -104 21 -96 12 hvcurveto
          -59 7 -84 10 80 vvcurveto
          hintmask 1000101111100000
          72 67 24 66 48 55 -13 -46 43 vhcurveto
          32 40 rlineto
          -6 8 -48 67 75 vvcurveto
          56 29 44 85 80 14 -40 -149 vhcurveto
          -73 hlineto
          hintmask 0011001111100000
          -54 73 -373 vlineto
          -67 49 -33 62 51 48 23 8 16 vhcurveto
          endchar
        </CharString>
        <CharString name="sacute">
          -11 callsubr
          338 730 -99 callsubr
          -4 -630 -102 callgsubr
          endchar
        </CharString>
        <CharString name="scaron">
          -11 callsubr
          123 710 -95 callgsubr
          87 -740 -102 callgsubr
          endchar
        </CharString>
        <CharString name="schwa">
          -61 -10 52 195 47 193 53 hstem
          29 67 380 72 vstem
          290 -10 rmoveto
          151 107 121 146 149 -111 124 -150 -101 -89 -55 -75 -32 hvcurveto
          59 -16 rlineto
          55 24 67 38 69 hhcurveto
          100 84 -81 -112 8 hvcurveto
          -445 hlineto
          -1 -5 -1 -14 -6 vvcurveto
          -147 1 109 -122 151 hhcurveto
          52 vmoveto
          -101 -86 81 114 -7 hvcurveto
          382 hlineto
          -112 -7 -79 -83 -102 hhcurveto
          endchar
        </CharString>
        <CharString name="scircumflex">
          -11 callsubr
          161 624 -100 callgsubr
          125 -655 -102 callgsubr
          endchar
        </CharString>
        <CharString name="sdotbelow">
          -161 -166 98 58 52 437 51 hstem
          53 65 93 62 112 66 vstem
          248 -10 -102 callgsubr
          25 -156 -50 callgsubr
          endchar
        </CharString>
        <CharString name="section">
          -142 -88 65 409 56 211 62 hstemhm
          47 68 -43 66 255 54 -54 70 hintmask 11110100
          417 195 rmoveto
          17 19 13 34 41 vvcurveto
          117 -107 28 -93 8 vhcurveto
          -52 4 -80 10 84 vvcurveto
          75 64 38 70 46 57 -16 -42 21 vhcurveto
          54 25 rlineto
          51 -34 -59 44 -85 hhcurveto
          -108 -94 -70 -103 -51 23 -44 28 -20 hvcurveto
          hintmask 11101010
          -14 -18 -12 -31 -40 vvcurveto
          -98 71 -50 124 -11 vhcurveto
          51 -4 75 -7 -78 vvcurveto
          -74 -69 -39 -69 -51 -49 22 46 -48 vhcurveto
          -45 -42 rlineto
          -42 41 67 -49 88 hhcurveto
          91 114 53 128 47 -15 36 -31 19 hvcurveto
          -279 134 rmoveto
          31 10 26 15 14 vhcurveto
          31 -12 24 -1 31 -1 rrcurveto
          58 -2 75 -20 -77 vvcurveto
          -28 -10 -29 -19 -15 vhcurveto
          -64 25 -151 -30 119 vvcurveto
          endchar
        </CharString>
        <CharString name="semicolon">
          -443 -60 -21 599 -20 hstem
          70 58 vstem
          128 420 rmoveto
          98 -58 -98 vlineto
          41 -501 36 callgsubr
        </CharString>
        <CharString name="servicemark">
          68 420 43 209 38 5 -20 hstemhm
          63 49 127 51 51 48 208 48 hintmask 11011110
          493 523 rmoveto
          -86 1 callsubr
          -304 -28 rmoveto
          hintmask 10111110
          21 -26 -32 12 -42 hhcurveto
          -65 -46 -30 -54 -52 35 -18 65 -15 hvcurveto
          58 -13 18 -10 -27 vvcurveto
          -22 -22 -11 -39 -45 -36 16 20 -20 vhcurveto
          -23 -36 rlineto
          -28 34 41 -15 48 hhcurveto
          66 47 25 54 58 -42 20 -66 14 hvcurveto
          -56 12 -14 10 23 vvcurveto
          hintmask 11011110
          23 19 13 43 34 30 -13 -18 15 vhcurveto
          endchar
        </CharString>
        <CharString name="seven">
          -113 -106 -21 647 63 hstem
          88 -127 rmoveto
          78 hlineto
          359 55 callsubr
        </CharString>
        <CharString name="seven.denominator">
          -293 21 48 callsubr
          hmoveto
          -14 callsubr
          250 hlineto
          endchar
        </CharString>
        <CharString name="seven.lnum">
          -127 21 -21 647 63 hstem
          86 hmoveto
          76 hlineto
          360 55 callsubr
        </CharString>
        <CharString name="seven.numerator">
          -293 352 48 callsubr
          331 rmoveto
          -14 callsubr
          249 hlineto
          endchar
        </CharString>
        <CharString name="seveneighths">
          201 -5 44 155 37 126 42 287 44 hstemhm
          492 -61 callsubr
          hintmask 1111100001000000
          102 -4 -93 callsubr
          745 84 -19 callgsubr
          hintmask 1111010010000000
          -69 callgsubr
          hintmask 1111100001000000
          -89 callsubr
          hintmask 1111001100000000
          -74 callsubr
          -475 38 rmoveto
          -14 callsubr
          249 hlineto
          endchar
        </CharString>
        <CharString name="seveninferior">
          -293 -59 48 callsubr
          -80 rmoveto
          -14 callsubr
          250 hlineto
          endchar
        </CharString>
        <CharString name="sevensuperior">
          -293 432 48 callsubr
          411 rmoveto
          -14 callsubr
          249 hlineto
          endchar
        </CharString>
        <CharString name="six">
          -74 callgsubr
        </CharString>
        <CharString name="six.denominator">
          -244 -5 27 callsubr
          132 -59 callgsubr
        </CharString>
        <CharString name="six.lnum">
          -74 callgsubr
        </CharString>
        <CharString name="six.numerator">
          -245 322 29 callgsubr
          460 -59 callsubr
        </CharString>
        <CharString name="sixinferior">
          -244 -85 27 callsubr
          52 -59 callgsubr
        </CharString>
        <CharString name="sixsuperior">
          -245 402 29 callgsubr
          540 -59 callsubr
        </CharString>
        <CharString name="slash">
          -44 -75 callsubr
          hstem
          499 11 callgsubr
          -472 -710 rlineto
          77 hlineto
          472 710 rlineto
          endchar
        </CharString>
        <CharString name="space">
          -393 endchar
        </CharString>
        <CharString name="sterling">
          -149 -15 60 -36 54 255 54 286 57 hstemhm
          78 63 37 60 hintmask 01111100
          52 318 rmoveto
          116 hlineto
          6 -20 4 -21 -23 vvcurveto
          -65 -32 -56 -92 -91 vhcurveto
          18 -50 rlineto
          10 34 43 7 31 hhcurveto
          hintmask 10111100
          62 45 -24 60 hhcurveto
          36 39 9 17 34 hvcurveto
          hintmask 01111100
          -17 52 rlineto
          hintmask 10111100
          -12 -36 -26 -6 -27 hhcurveto
          hintmask 01111100
          -48 -38 18 -56 hhcurveto
          -24 -25 -3 -6 -24 hvcurveto
          76 82 27 55 67 vvcurveto
          21 -3 20 -5 19 vhcurveto
          158 54 -178 hlineto
          -28 61 -41 48 59 vvcurveto
          66 51 52 65 55 56 -35 -55 32 vhcurveto
          40 42 rlineto
          65 -40 -69 40 -72 hhcurveto
          -100 -81 -76 -95 -64 38 -51 30 -57 hvcurveto
          -94 hlineto
          endchar
        </CharString>
        <CharString name="summation">
          -119 0 64 589 57 hstem
          479 11 callgsubr
          -441 -46 hlineto
          220 -304 -226 -309 rlineto
          -51 462 64 -379 4 vlineto
          217 301 -202 280 rlineto
          4 349 vlineto
          endchar
        </CharString>
        <CharString name="t">
          -313 -6 63 49 callsubr
          hstem
          97 68 vstem
          307 80 rmoveto
          -75 callgsubr
        </CharString>
        <CharString name="t.alt">
          -332 21 -21 459 62 176 -20 hstem
          104 69 vstem
          173 hmoveto
          459 124 62 -124 176 -69 -176 -77 -62 77 -459 vlineto
          endchar
        </CharString>
        <CharString name="tbar">
          -311 -6 63 250 46 114 54 176 -20 hstem
          98 68 vstem
          308 80 rmoveto
          -5 -8 -33 -18 -38 hhcurveto
          -32 -28 18 38 -3 hvcurveto
          194 120 46 -120 114 120 54 -120 176 -68 -176 -72 -54 72 -114 -72 -46 72 -213 vlineto
          -10 callgsubr
          16 vhcurveto
          endchar
        </CharString>
        <CharString name="tcaron">
          -313 -6 63 410 54 209 -20 hstem
          97 68 vstem
          362 730 -99 callsubr
          31 -540 rmoveto
          -75 callgsubr
        </CharString>
        <CharString name="tdotbelow">
          -313 -166 98 62 63 49 callsubr
          hstem
          97 68 5 62 vstem
          232 2 callsubr
          137 246 rmoveto
          -75 callgsubr
        </CharString>
        <CharString name="thorn">
          -45 -192 -21 197 63 423 62 -62 240 hstemhm
          75 69 351 70 hintmask 11101100
          565 257 rmoveto
          131 -93 144 -154 -82 -54 -44 -54 -38 vhcurveto
          hintmask 11011100
          276 -69 -923 69 287 vlineto
          -48 30 62 -42 73 hhcurveto
          143 110 129 144 3 hvcurveto
          -70 1 rmoveto
          -108 -78 -103 -109 -69 -95 60 65 vhcurveto
          176 vlineto
          64 33 58 58 80 hhcurveto
          108 72 -102 -110 hvcurveto
          endchar
        </CharString>
        <CharString name="three">
          -114 -147 62 290 58 251 62 hstemhm
          404 71 -57 70 hintmask 11110000
          343 236 rmoveto
          82 12 50 68 81 vvcurveto
          106 -87 73 -123 -97 -86 -46 -70 -33 vhcurveto
          44 -42 rlineto
          60 29 61 36 76 hhcurveto
          83 62 -43 -80 -75 -57 -53 -102 hvcurveto
          -27 -58 25 hlineto
          hintmask 11101000
          112 63 -58 -91 -90 -62 -51 -99 -86 -58 38 58 -28 hvcurveto
          -47 -43 rlineto
          -72 38 80 -43 101 hhcurveto
          138 93 81 121 96 -57 71 -88 14 hvcurveto
          endchar
        </CharString>
        <CharString name="three.denominator">
          -257 -5 44 146 40 -17 callsubr
          -5 -64 callsubr
        </CharString>
        <CharString name="three.lnum">
          -64 -9 64 278 59 266 61 hstemhm
          463 52 -52 70 hintmask 11101000
          285 -9 rmoveto
          133 115 74 119 89 -62 74 -95 18 hvcurveto
          hintmask 11110000
          90 22 49 54 81 vvcurveto
          112 -100 85 -136 -96 -92 -44 -72 -37 vhcurveto
          47 -46 rlineto
          57 25 66 44 88 hhcurveto
          89 75 -54 -84 -85 -79 -43 -130 hvcurveto
          -34 -59 34 hlineto
          139 89 -53 -88 -81 -77 -56 -101 -113 -77 70 69 -5 hvcurveto
          -42 -38 rlineto
          -98 15 96 -67 126 hhcurveto
          endchar
        </CharString>
        <CharString name="three.numerator">
          -258 321 45 145 41 -17 callsubr
          321 -83 callgsubr
          hintmask 11101000
          -54 callsubr
          endchar
        </CharString>
        <CharString name="threeeighths">
          215 -5 44 155 37 90 45 -9 42 112 41 138 41 hstemhm
          300 59 -45 45 147 -61 callsubr
          hintmask 1110111010010000
          198 321 -83 callgsubr
          hintmask 1110110110000100
          -54 callsubr
          -25 -325 -93 callsubr
          688 84 -19 callgsubr
          hintmask 1101111001001000
          -69 callgsubr
          hintmask 1110111010000100
          -89 callsubr
          hintmask 1101111000110000
          -74 callsubr
          endchar
        </CharString>
        <CharString name="threeinferior">
          -257 -85 44 146 40 -17 callsubr
          -85 -64 callsubr
        </CharString>
        <CharString name="threequarters">
          189 17 -21 25 -21 103 44 174 45 145 41 138 41 hstemhm
          299 59 -45 45 339 44 hintmask 0111111010000000
          197 321 -83 callgsubr
          hintmask 0111110110000000
          -54 callsubr
          544 -321 rmoveto
          -64 callgsubr
          hintmask 1011111010000000
          -316 -151 -29 callgsubr
        </CharString>
        <CharString name="threesuperior">
          -258 401 45 145 41 -17 callsubr
          401 -83 callgsubr
          hintmask 11101000
          -54 callsubr
          endchar
        </CharString>
        <CharString name="tilde">
          -242 638 43 -30 -21 48 0 callsubr
          hintmask 10010000
          264 28 callsubr
          hintmask 01100000
          -94 callgsubr
          hintmask 10010000
          -49 callsubr
        </CharString>
        <CharString name="trademark">
          79 445 -21 240 48 -2 -20 hstemhm
          157 48 141 48 208 48 hintmask 11011100
          300 712 rmoveto
          -238 -48 95 -240 48 240 95 hlineto
          197 -141 rmoveto
          hintmask 10111100
          -85 1 callsubr
          endchar
        </CharString>
        <CharString name="two">
          -127 0 62 458 61 hstem
          44 73 272 73 vstem
          473 hmoveto
          62 -356 vlineto
          1 85 87 52 84 38 rrcurveto
          64 29 109 50 108 vvcurveto
          84 -72 73 -122 -122 -78 -78 -17 -15 vhcurveto
          45 -49 rlineto
          25 20 52 58 87 hhcurveto
          87 45 -53 -50 -81 -102 -34 -77 -40 hvcurveto
          -143 -74 -23 -98 -90 vvcurveto
          endchar
        </CharString>
        <CharString name="two.denominator">
          -257 0 54 callgsubr
          hmoveto
          44 -255 vlineto
          36 24 48 90 30 vhcurveto
          55 18 85 26 -27 callgsubr
        </CharString>
        <CharString name="two.lnum">
          -67 0 62 593 64 hstem
          48 74 329 75 vstem
          527 hmoveto
          62 -405 vlineto
          88 41 74 149 63 vhcurveto
          99 42 115 49 137 vvcurveto
          109 -74 95 -147 -152 -84 -103 -19 -15 vhcurveto
          45 -44 rlineto
          40 31 65 62 103 hhcurveto
          104 49 -66 -75 -118 -119 -28 -91 -43 hvcurveto
          -122 -58 -71 -78 -175 vvcurveto
          -14 vlineto
          endchar
        </CharString>
        <CharString name="two.numerator">
          -260 327 50 callsubr
          327 rmoveto
          43 -255 vlineto
          37 26 47 93 30 vhcurveto
          55 18 86 27 -28 callsubr
        </CharString>
        <CharString name="twoinferior">
          -257 -80 54 callgsubr
          -80 rmoveto
          44 -261 vlineto
          36 28 47 92 30 vhcurveto
          55 18 85 27 -27 callgsubr
        </CharString>
        <CharString name="twosuperior">
          -260 407 50 callsubr
          407 rmoveto
          43 -253 vlineto
          37 28 47 89 29 vhcurveto
          55 18 86 28 -28 callsubr
        </CharString>
        <CharString name="twothirds">
          223 -5 44 146 40 102 43 -7 41 283 44 hstemhm
          301 48 427 59 -45 45 hintmask 11101110
          345 327 rmoveto
          43 -249 vlineto
          37 25 47 91 30 vhcurveto
          54 18 83 27 83 vvcurveto
          68 -47 51 -95 -96 -53 -54 -14 -10 vhcurveto
          29 -31 rlineto
          22 20 39 33 65 hhcurveto
          66 34 -33 -41 -62 -75 -17 -59 -24 hvcurveto
          -83 -33 -40 -47 -103 vvcurveto
          144 -331 -93 callsubr
          520 -32 -65 callsubr
        </CharString>
        <CharString name="u">
          -54 -10 60 -31 -21 523 30 callgsubr
          hintmask 10111000
          14 callsubr
          hintmask 01110100
          -84 callsubr
          hintmask 10111000
          -82 callgsubr
        </CharString>
        <CharString name="u.alt">
          -58 -10 60 -29 -39 callgsubr
          5 callgsubr
          hintmask 01111000
          515 hmoveto
          521 -68 -328 vlineto
          hintmask 10111000
          -78 -27 -74 -65 -83 hhcurveto
          -102 -23 79 98 hvcurveto
          294 -68 -306 vlineto
          -120 34 -105 137 85 82 47 77 41 vhcurveto
          hintmask 01111000
          -114 vlineto
          endchar
        </CharString>
        <CharString name="uacute">
          -29 callsubr
          383 730 -99 callsubr
          -59 -630 -71 callsubr
          hintmask 01111010
          -84 callsubr
          hintmask 10111100
          -82 callgsubr
        </CharString>
        <CharString name="ubreve">
          -57 callsubr
          128 15 callgsubr
          70 68 55 196 58 -63 callsubr
          53 674 rmoveto
          hintmask 1010111100000000
          -92 callsubr
          hintmask 1011011100000000
          -51 callsubr
        </CharString>
        <CharString name="ucircumflex">
          -29 callsubr
          205 624 -100 callgsubr
          71 -655 -71 callsubr
          hintmask 01111010
          -84 callsubr
          hintmask 10111100
          -82 callgsubr
        </CharString>
        <CharString name="udblgrave">
          -29 callsubr
          348 620 -94 callsubr
          99 -740 -71 callsubr
          hintmask 01111010
          -84 callsubr
          hintmask 10111100
          -82 callgsubr
        </CharString>
        <CharString name="udieresis">
          -57 callsubr
          132 94 hstemhm
          70 68 49 58 91 58 53 68 -68 92 hintmask 1011111100000000
          245 633 -91 callgsubr
          -98 -643 -71 callsubr
          hintmask 0111111010000000
          -84 callsubr
          hintmask 1011111100000000
          -82 callgsubr
        </CharString>
        <CharString name="udotbelow">
          -54 -166 98 58 -44 callgsubr
          hstemhm
          70 68 116 62 131 68 -68 92 hintmask 11011110
          14 callsubr
          hintmask 10111101
          -84 callsubr
          hintmask 11011110
          -104 callsubr
          78 -156 -50 callgsubr
          endchar
        </CharString>
        <CharString name="ugrave">
          -29 callsubr
          14 callsubr
          hintmask 01111010
          -84 callsubr
          hintmask 10111100
          -104 callsubr
          47 630 -76 callsubr
        </CharString>
        <CharString name="uhungarumlaut">
          -29 callsubr
          14 callsubr
          hintmask 01111010
          -84 callsubr
          hintmask 10111100
          -104 callsubr
          73 740 -62 callsubr
          endchar
        </CharString>
        <CharString name="uinvertedbreve">
          -57 callsubr
          128 42 callsubr
          70 68 53 196 60 68 -68 92 hintmask 1010111100000000
          289 695 rmoveto
          hintmask 1011011100000000
          -93 callgsubr
          hintmask 1010111100000000
          -22 callsubr
          -51 -705 -54 callgsubr
          endchar
        </CharString>
        <CharString name="umacron">
          -57 callsubr
          162 47 -22 callgsubr
          hintmask 10111100
          14 callsubr
          hintmask 01111010
          -84 callsubr
          hintmask 10111100
          -104 callsubr
          198 673 -40 callsubr
        </CharString>
        <CharString name="underscore">
          -137 -62 62 hstem
          446 -62 rmoveto
          62 -381 -62 vlineto
          endchar
        </CharString>
        <CharString name="uni00A0">
          -393 endchar
        </CharString>
        <CharString name="uni00AD">
          25 callgsubr
        </CharString>
        <CharString name="uni015E">
          -40 34 callgsubr
          40 61 597 62 hstem
          58 72 259 39 71 74 vstem
          227 -78 callgsubr
          28 46 rlineto
          136 6 95 61 124 vvcurveto
          127 -95 39 -151 33 vhcurveto
          -137 30 -60 22 84 vvcurveto
          81 55 51 125 85 69 -31 -45 40 vhcurveto
          34 56 rlineto
          -91 callsubr
          -82 -67 -41 -113 -108 -93 44 54 -51 vhcurveto
          -35 -57 75 -65 92 -35 104 -3 rlinecurve
          -44 -81 -77 callsubr
        </CharString>
        <CharString name="uni015F">
          -160 34 callgsubr
          36 51 437 51 hstem
          53 65 198 39 30 66 vstem
          154 -78 callgsubr
          26 42 rlineto
          112 6 72 59 90 vvcurveto
          89 -69 26 -134 32 vhcurveto
          -93 22 -37 12 55 vvcurveto
          68 57 29 71 59 59 -20 -40 39 vhcurveto
          33 40 rlineto
          42 -40 -68 29 -80 hhcurveto
          -107 -88 -53 -105 -82 54 -21 121 -30 hvcurveto
          105 -25 52 -16 -58 vvcurveto
          -62 -55 -36 -83 -69 -60 24 48 -58 vhcurveto
          -31 -46 51 -47 73 -26 75 -4 rlinecurve
          -42 -78 -77 callsubr
        </CharString>
        <CharString name="uni0162">
          -39 34 callgsubr
          66 -21 648 62 hstem
          269 70 33 39 vstem
          210 -78 callgsubr
          32 51 rlineto
          10 648 253 62 -576 -62 253 -648 20 hlineto
          -47 -87 -77 callsubr
        </CharString>
        <CharString name="uni0163">
          -313 34 callgsubr
          -28 130 49 callsubr
          hstemhm
          97 68 109 39 hintmask 11011110
          112 -78 callgsubr
          29 46 46 5 37 19 14 6 rlinecurve
          -18 55 rlineto
          hintmask 10111110
          -5 -8 -33 -18 -38 hhcurveto
          -32 -28 18 38 -3 hvcurveto
          354 120 54 -120 176 -68 -176 -72 -54 72 -373 vlineto
          -60 40 -33 51 -6 vhcurveto
          -44 -82 -77 callsubr
        </CharString>
        <CharString name="uni01C4">
          695 12 callgsubr
          89 70 441 70 vstem
          922 897 -95 callgsubr
          -214 3 callsubr
          -416 -55 rmoveto
          -98 callsubr
        </CharString>
        <CharString name="uni01C5">
          558 42 callgsubr
          127 62 20 43 callgsubr
          441 70 hintmask 11011100
          847 -35 callgsubr
          -416 -46 rmoveto
          207 133 141 215 196 -114 158 -226 hvcurveto
          -241 -710 hlineto
          511 356 rmoveto
          -167 -94 -127 -176 vhcurveto
          -171 hlineto
          hintmask 11101100
          586 171 vlineto
          173 97 -122 -170 hvcurveto
          endchar
        </CharString>
        <CharString name="uni01C6">
          1 callgsubr
          754 -35 callgsubr
          hintmask 0101011100000000
          -364 -56 -21 callsubr
          hintmask 0011011100000000
          -29 28 -24 32 vhcurveto
          hintmask 1001011010000000
          22 callsubr
          hintmask 0100111100000000
          -88 callsubr
          hvcurveto
          hintmask 1001011100000000
          -32 callsubr
          vhcurveto
          -32 callgsubr
        </CharString>
        <CharString name="uni01C7">
          416 -11 63 -31 -21 710 43 callgsubr
          755 70 hintmask 10111000
          597 33 rmoveto
          -86 callsubr
          hintmask 01111000
          -48 -89 rmoveto
          -20 callgsubr
          endchar
        </CharString>
        <CharString name="uni01C8">
          159 -181 61 120 62 459 -20 129 100 -20 43 callgsubr
          506 68 hintmask 11110110
          580 -181 -96 callgsubr
          -96 -630 rmoveto
          62 -410 vlineto
          hintmask 11101110
          648 -70 -710 vlineto
          endchar
        </CharString>
        <CharString name="uni01C9">
          -151 -181 61 114 62 465 -20 129 100 hstem
          78 68 208 68 vstem
          269 -181 -96 callgsubr
          -276 -535 -82 callsubr
          612 -68 vlineto
          endchar
        </CharString>
        <CharString name="uni01CA">
          605 -11 63 -31 -21 callgsubr
          454 70 420 70 hintmask 10011110
          786 33 rmoveto
          -86 callsubr
          hintmask 01101110
          -184 -89 40 callgsubr
          hintmask 01011110
          -18 callgsubr
        </CharString>
        <CharString name="uni01CB">
          349 31 callgsubr
          521 -20 129 100 -20 43 callgsubr
          454 70 171 68 hintmask 11110111
          769 -181 -96 callgsubr
          -232 -630 40 callgsubr
          hintmask 11101111
          -18 callgsubr
        </CharString>
        <CharString name="uni01CC">
          160 31 callgsubr
          468 62 -9 -20 129 100 4 callsubr
          152 68 hintmask 11011111
          580 -181 -96 callgsubr
          -152 -325 rmoveto
          hintmask 11101111
          -66 callsubr
          hintmask 11011111
          -53 callsubr
          hintmask 11101111
          -73 callgsubr
          endchar
        </CharString>
        <CharString name="uni01F1">
          681 0 62 586 39 callgsubr
          731 hmoveto
          -78 callsubr
          -401 -55 rmoveto
          -98 callsubr
        </CharString>
        <CharString name="uni01F2">
          558 42 callgsubr
          127 39 callgsubr
          746 -58 callsubr
          -416 -46 rmoveto
          -98 callsubr
        </CharString>
        <CharString name="uni01F3">
          1 callgsubr
          653 -58 callsubr
          hintmask 0101011100000000
          -364 -56 -21 callsubr
          hintmask 0011011100000000
          -29 28 -24 32 vhcurveto
          hintmask 1001011010000000
          22 callsubr
          hintmask 0100111100000000
          -88 callsubr
          hvcurveto
          hintmask 1001011100000000
          -32 callsubr
          vhcurveto
          -32 callgsubr
        </CharString>
        <CharString name="uni0218">
          -41 5 callsubr
          43 0 62 597 62 hstemhm
          58 72 155 63 151 74 hintmask 11011110
          323 -87 callgsubr
          250 832 rmoveto
          -91 callsubr
          hintmask 10111110
          -82 -67 -41 -113 -108 -93 44 54 -51 vhcurveto
          -35 -57 rlineto
          -68 79 96 -35 110 hhcurveto
          149 107 61 131 127 -95 39 -151 33 hvcurveto
          -137 30 -60 22 84 vvcurveto
          81 55 51 125 85 69 -31 -45 40 vhcurveto
          endchar
        </CharString>
        <CharString name="uni0219">
          -161 5 callsubr
          39 0 52 437 51 hstemhm
          53 65 96 63 108 66 hintmask 11011110
          252 -87 callgsubr
          31 189 rmoveto
          123 80 61 95 89 -69 26 -134 32 hvcurveto
          -93 22 -37 12 55 vvcurveto
          68 57 29 71 59 59 -20 -40 39 vhcurveto
          33 40 rlineto
          42 -40 -68 29 -80 hhcurveto
          -107 -88 -53 -105 -82 54 -21 121 -30 hvcurveto
          105 -25 52 -16 -58 vvcurveto
          hintmask 10111110
          -62 -55 -36 -83 -69 -60 24 48 -58 vhcurveto
          -31 -46 rlineto
          -51 56 82 -27 81 hhcurveto
          endchar
        </CharString>
        <CharString name="uni021A">
          -38 5 callsubr
          49 23 callsubr
          311 -87 callgsubr
          317 909 -45 callgsubr
        </CharString>
        <CharString name="uni021B">
          -313 5 callsubr
          43 0 63 49 callsubr
          hstemhm
          97 68 7 63 hintmask 11011110
          210 -87 callgsubr
          132 279 rmoveto
          hintmask 10111110
          -75 callgsubr
        </CharString>
        <CharString name="uni02C9">
          -252 663 47 hstem
          343 663 -40 callsubr
        </CharString>
        <CharString name="uni030F">
          -322 3 callgsubr
          246 620 16 callsubr
        </CharString>
        <CharString name="uni0311">
          -366 629 42 callsubr
          43 196 hintmask 01100000
          141 695 rmoveto
          hintmask 10100000
          -93 callgsubr
          hintmask 01100000
          -22 callsubr
          endchar
        </CharString>
        <CharString name="uni0394">
          -1 49 callgsubr
          353 -8 callgsubr
        </CharString>
        <CharString name="uni03A9">
          -72 callgsubr
        </CharString>
        <CharString name="uni03BC">
          -48 46 callsubr
          75 64 314 68 -68 92 hintmask 11011100
          75 19 callsubr
          -56 vlineto
          hintmask 10111010
          -37 -35 callsubr
        </CharString>
        <CharString name="uni0400">
          -15 callgsubr
          90 70 vstem
          160 62 -86 callgsubr
          -235 745 -76 callsubr
        </CharString>
        <CharString name="uni0401">
          -70 callgsubr
          110 94 hstem
          90 70 75 67 callgsubr
          293 820 -91 callgsubr
          -224 -758 -86 callgsubr
          endchar
        </CharString>
        <CharString name="uni0402">
          53 -10 60 -29 -21 383 63 202 62 hstemhm
          204 69 327 73 hintmask 01111100
          204 hmoveto
          69 312 hlineto
          49 51 56 22 64 hhcurveto
          105 51 -56 -112 hvcurveto
          hintmask 10111100
          -109 -47 -56 -91 -29 -24 5 18 -38 vhcurveto
          -21 -61 rlineto
          -16 38 35 -6 39 hhcurveto
          139 72 80 144 151 -81 81 -139 -72 -63 -22 -42 -45 hvcurveto
          266 276 62 -532 -62 187 vlineto
          endchar
        </CharString>
        <CharString name="uni0403">
          56 callgsubr
          207 -20 hstem
          91 69 vstem
          389 917 -99 callsubr
          197 -97 rmoveto
          -409 -710 69 648 340 hlineto
          endchar
        </CharString>
        <CharString name="uni0404">
          65 callsubr
          42 71 vstem
          612 189 rmoveto
          -92 -47 -97 -40 -82 hhcurveto
          -155 -108 128 148 -10 hvcurveto
          364 59 -362 hlineto
          131 12 89 128 167 hhcurveto
          80 90 -32 -94 47 hvcurveto
          56 34 rlineto
          91 -45 -88 64 -136 hhcurveto
          -225 -120 -183 -171 -180 134 -186 206 126 115 59 106 47 hvcurveto
          endchar
        </CharString>
        <CharString name="uni0405">
          -41 -6 62 597 62 56 callsubr
          538 633 -103 callgsubr
          endchar
        </CharString>
        <CharString name="uni0406">
          -398 -75 callsubr
          hstem
          90 70 vstem
          160 hmoveto
          710 -70 -710 vlineto
          endchar
        </CharString>
        <CharString name="uni0407">
          -398 12 callsubr
          22 58 10 70 11 58 vstem
          160 hmoveto
          710 -70 -710 vlineto
          -10 820 -18 callsubr
        </CharString>
        <CharString name="uni0408">
          -165 -11 63 658 -20 hstem
          331 70 vstem
          14 33 rmoveto
          -86 callsubr
          endchar
        </CharString>
        <CharString name="uni0409">
          350 0 61 -45 -21 353 61 239 62 hstemhm
          256 233 0 69 341 70 hintmask 01111010
          18 -5 rmoveto
          139 62 150 377 32 hvcurveto
          10 126 rlineto
          228 hlineto
          hintmask 10110110
          -648 270 vlineto
          38 callgsubr
          -200 301 -361 hlineto
          -15 -182 -33 -399 -62 -64 -81 -3 rlinecurve
          hintmask 01111010
          hintmask 10110110
          552 -1 rmoveto
          287 200 48 callgsubr
        </CharString>
        <CharString name="uni040A">
          392 0 61 286 62 301 -20 hstem
          91 69 365 69 347 70 vstem
          525 hmoveto
          276 hlineto
          38 callgsubr
          -206 301 -69 -301 -365 301 -69 -710 69 347 365 hlineto
          69 -286 rmoveto
          287 206 48 callgsubr
        </CharString>
        <CharString name="uni040B">
          60 21 -21 380 62 206 62 hstem
          204 69 326 68 vstem
          599 hmoveto
          68 236 hlineto
          141 -74 65 -130 -72 -68 -22 -35 -50 vhcurveto
          263 276 62 -532 -62 187 -648 69 317 vlineto
          39 49 66 24 70 hhcurveto
          100 41 -45 -113 hvcurveto
          endchar
        </CharString>
        <CharString name="uni040C">
          -44 41 callgsubr
          227 -20 hstem
          91 69 vstem
          414 917 -99 callsubr
          -168 -97 -26 callsubr
        </CharString>
        <CharString name="uni040D">
          83 -20 callsubr
          91 69 428 70 vstem
          366 807 rmoveto
          44 17 -60 93 rlineto
          -71 hlineto
          -119 -207 -38 callgsubr
        </CharString>
        <CharString name="uni040E">
          -26 -7 61 656 -20 121 39 -39 105 hstemhm
          170 43 hintmask 11011000
          -14 callgsubr
          -91 -41 -31 -26 -49 hhcurveto
          -23 -28 46 callgsubr
          150 818 rmoveto
          90 55 41 64 1 hvcurveto
          -42 hlineto
          hintmask 11101000
          -38 -5 -42 -28 -57 hhcurveto
          hintmask 11011000
          -59 -45 32 34 hvcurveto
          -43 hlineto
          -64 1 56 -41 90 hhcurveto
          endchar
        </CharString>
        <CharString name="uni040F">
          46 -185 247 39 callsubr
          151 69 152 70 hintmask 01111100
          91 hmoveto
          221 hlineto
          hintmask 10111100
          -185 69 vlineto
          hintmask 01111100
          185 222 710 -70 -648 -372 648 -70 vlineto
          endchar
        </CharString>
        <CharString name="uni0410">
          -60 callsubr
          hstem
          -103 callsubr
          endchar
        </CharString>
        <CharString name="uni0411">
          5 0 61 287 61 239 62 hstem
          91 69 387 70 vstem
          91 hmoveto
          315 hlineto
          125 86 78 128 129 -86 74 -126 hvcurveto
          -245 239 415 62 -484 hlineto
          69 -649 rmoveto
          287 245 vlineto
          101 41 -60 -82 -83 -45 -62 -96 hvcurveto
          endchar
        </CharString>
        <CharString name="uni0412">
          20 0 61 269 57 262 61 hstemhm
          76 70 365 69 -40 70 hintmask 11110100
          610 -65 callgsubr
        </CharString>
        <CharString name="uni0413">
          56 callgsubr
          hstem
          91 69 vstem
          500 11 callgsubr
          -409 -710 69 648 340 hlineto
          endchar
        </CharString>
        <CharString name="uni0414">
          58 -186 248 -62 62 586 62 hstemhm
          17 63 435 69 39 62 hintmask 10111100
          17 -186 rmoveto
          63 hlineto
          hintmask 01111100
          186 543 vlineto
          hintmask 10111100
          -186 62 248 -101 648 -372 vlineto
          -15 -182 -33 -402 -51 -55 -80 -9 rlinecurve
          -16 hlineto
          129 hmoveto
          65 53 34 139 21 268 10 126 rcurveline
          239 -586 hlineto
          endchar
        </CharString>
        <CharString name="uni0415">
          -70 callgsubr
          hstem
          90 70 vstem
          160 62 -86 callgsubr
          endchar
        </CharString>
        <CharString name="uni0416">
          297 41 callgsubr
          hstem
          434 77 vstem
          3 hmoveto
          81 hlineto
          207 333 rlineto
          143 -333 77 333 143 hlineto
          207 -333 rlineto
          81 hlineto
          -239 368 213 342 rlineto
          -81 hlineto
          -191 -315 rlineto
          -133 315 -77 -315 -133 hlineto
          -192 315 rlineto
          -80 hlineto
          212 -342 rlineto
          endchar
        </CharString>
        <CharString name="uni0417">
          -125 -5 64 298 63 234 61 hstemhm
          380 68 -38 70 hintmask 11110000
          96 583 rmoveto
          42 28 55 29 66 hhcurveto
          80 55 -37 -73 -78 -64 -46 -110 hvcurveto
          -49 -63 49 hlineto
          hintmask 11101000
          127 77 -58 -94 -88 -69 -58 -97 -74 -58 36 55 -31 hvcurveto
          -56 -42 rlineto
          -69 39 80 -44 96 hhcurveto
          140 100 89 125 96 -57 70 -95 13 hvcurveto
          hintmask 11110000
          78 19 42 60 81 vvcurveto
          107 -75 60 -129 -89 -65 -33 -56 -41 vhcurveto
          endchar
        </CharString>
        <CharString name="uni0418">
          100 -75 callsubr
          hstem
          91 69 428 70 vstem
          160 710 -38 callgsubr
        </CharString>
        <CharString name="uni0419">
          100 -75 callsubr
          121 39 -39 105 hstemhm
          91 69 76 43 309 70 hintmask 11011110
          488 916 rmoveto
          hintmask 11101110
          -38 -5 -42 -28 -57 hhcurveto
          hintmask 11011110
          -60 -45 32 34 hvcurveto
          -43 hlineto
          -64 2 55 -41 90 hhcurveto
          90 55 41 64 2 hvcurveto
          -370 -206 -38 callgsubr
        </CharString>
        <CharString name="uni041A">
          -44 41 callgsubr
          hstem
          91 69 vstem
          160 710 -26 callsubr
        </CharString>
        <CharString name="uni041B">
          2 -5 67 -41 -21 648 62 hstemhm
          256 233 0 69 hintmask 01110000
          261 648 rmoveto
          228 -648 hlineto
          hintmask 01101000
          69 710 -361 hlineto
          -15 -182 rlineto
          hintmask 10110000
          -33 -399 -62 -64 -81 -3 12 -67 rcurveline
          139 62 150 377 32 hvcurveto
          endchar
        </CharString>
        <CharString name="uni041C">
          232 -75 callsubr
          hstem
          90 70 559 70 vstem
          789 -26 callgsubr
        </CharString>
        <CharString name="uni041D">
          93 21 -21 332 62 316 -20 hstem
          90 70 421 69 vstem
          581 710 -50 callsubr
          endchar
        </CharString>
        <CharString name="uni041E">
          -36 callgsubr
          hstem
          43 70 526 70 vstem
          376 -5 -105 callsubr
        </CharString>
        <CharString name="uni041F">
          81 21 -21 648 62 hstem
          91 69 409 70 vstem
          91 hmoveto
          69 648 409 -648 70 710 -548 hlineto
          endchar
        </CharString>
        <CharString name="uni0420">
          -25 4 callgsubr
          hstem
          90 70 365 70 vstem
          160 -39 callsubr
        </CharString>
        <CharString name="uni0421">
          38 -6 63 594 63 hstem
          42 70 vstem
          42 360 -102 callsubr
          endchar
        </CharString>
        <CharString name="uni0422">
          -39 21 -21 23 callsubr
          593 710 -45 callgsubr
        </CharString>
        <CharString name="uni0423">
          -26 -7 61 656 -20 hstem
          -14 callgsubr
          -92 -41 -32 -25 -48 hhcurveto
          -24 -27 46 callgsubr
          endchar
        </CharString>
        <CharString name="uni0424">
          93 -16 -21 101 64 483 65 96 -20 hstem
          33 71 234 70 228 70 vstem
          338 -37 rmoveto
          70 101 hlineto
          183 12 115 112 180 vvcurveto
          179 -113 116 -185 13 vhcurveto
          96 -70 -96 vlineto
          -189 -13 -116 -116 -179 vvcurveto
          -180 118 -112 187 -12 vhcurveto
          70 64 rmoveto
          483 vlineto
          144 -11 84 -85 -144 vvcurveto
          -145 -86 -86 -142 -12 vhcurveto
          -70 hmoveto
          -146 11 -88 86 146 vvcurveto
          145 85 84 149 11 vhcurveto
          endchar
        </CharString>
        <CharString name="uni0425">
          -46 callsubr
        </CharString>
</ttFont>
